<?xml version="1.0" encoding="UTF-8"?>
<!--Generator: Apple Native CoreSVG 175.5-->
<!DOCTYPE svg
PUBLIC "-//W3C//DTD SVG 1.1//EN"
       "http://www.w3.org/Graphics/SVG/1.1/DTD/svg11.dtd">
<svg version="1.1" xmlns="http://www.w3.org/2000/svg" xmlns:xlink="http://www.w3.org/1999/xlink" width="3300" height="2200">
 <!--glyph: "uni10039E.medium", point size: 100.0, font version: "18.0d11e1", template writer version: "90"-->
 <g id="Notes">
  <rect height="2200" id="artboard" style="fill:white;opacity:1" width="3300" x="0" y="0"/>
  <line style="fill:none;stroke:black;opacity:1;stroke-width:0.5;" x1="263" x2="3036" y1="292" y2="292"/>
  <text style="stroke:none;fill:black;font-family:sans-serif;font-size:13;font-weight:bold;" transform="matrix(1 0 0 1 263 322)">Weight/Scale Variations</text>
  <text style="stroke:none;fill:black;font-family:sans-serif;font-size:13;text-anchor:middle;" transform="matrix(1 0 0 1 559.711 322)">Ultralight</text>
  <text style="stroke:none;fill:black;font-family:sans-serif;font-size:13;text-anchor:middle;" transform="matrix(1 0 0 1 856.422 322)">Thin</text>
  <text style="stroke:none;fill:black;font-family:sans-serif;font-size:13;text-anchor:middle;" transform="matrix(1 0 0 1 1153.13 322)">Light</text>
  <text style="stroke:none;fill:black;font-family:sans-serif;font-size:13;text-anchor:middle;" transform="matrix(1 0 0 1 1449.84 322)">Regular</text>
  <text style="stroke:none;fill:black;font-family:sans-serif;font-size:13;text-anchor:middle;" transform="matrix(1 0 0 1 1746.56 322)">Medium</text>
  <text style="stroke:none;fill:black;font-family:sans-serif;font-size:13;text-anchor:middle;" transform="matrix(1 0 0 1 2043.27 322)">Semibold</text>
  <text style="stroke:none;fill:black;font-family:sans-serif;font-size:13;text-anchor:middle;" transform="matrix(1 0 0 1 2339.98 322)">Bold</text>
  <text style="stroke:none;fill:black;font-family:sans-serif;font-size:13;text-anchor:middle;" transform="matrix(1 0 0 1 2636.69 322)">Heavy</text>
  <text style="stroke:none;fill:black;font-family:sans-serif;font-size:13;text-anchor:middle;" transform="matrix(1 0 0 1 2933.4 322)">Black</text>
  <line style="fill:none;stroke:black;opacity:1;stroke-width:0.5;" x1="263" x2="3036" y1="1903" y2="1903"/>
  <g transform="matrix(1 0 0 1 263 1933)">
   <path d="M9.24805 0.830078C13.5547 0.830078 17.1387-2.74414 17.1387-7.05078C17.1387-11.3574 13.5449-14.9316 9.23828-14.9316C4.94141-14.9316 1.36719-11.3574 1.36719-7.05078C1.36719-2.74414 4.95117 0.830078 9.24805 0.830078ZM9.24805-0.654297C5.70312-0.654297 2.87109-3.49609 2.87109-7.05078C2.87109-10.6055 5.69336-13.4473 9.23828-13.4473C12.793-13.4473 15.6445-10.6055 15.6445-7.05078C15.6445-3.49609 12.8027-0.654297 9.24805-0.654297ZM5.6543-7.05078C5.6543-6.62109 5.95703-6.32812 6.40625-6.32812L8.50586-6.32812L8.50586-4.20898C8.50586-3.76953 8.79883-3.4668 9.22852-3.4668C9.67773-3.4668 9.9707-3.76953 9.9707-4.20898L9.9707-6.32812L12.0898-6.32812C12.5293-6.32812 12.832-6.62109 12.832-7.05078C12.832-7.49023 12.5293-7.79297 12.0898-7.79297L9.9707-7.79297L9.9707-9.90234C9.9707-10.3516 9.67773-10.6543 9.22852-10.6543C8.79883-10.6543 8.50586-10.3516 8.50586-9.90234L8.50586-7.79297L6.40625-7.79297C5.95703-7.79297 5.6543-7.49023 5.6543-7.05078Z"/>
  </g>
  <g transform="matrix(1 0 0 1 281.867 1933)">
   <path d="M11.709 2.91016C17.1582 2.91016 21.6699-1.61133 21.6699-7.05078C21.6699-12.5 17.1484-17.0117 11.6992-17.0117C6.25977-17.0117 1.74805-12.5 1.74805-7.05078C1.74805-1.61133 6.26953 2.91016 11.709 2.91016ZM11.709 1.25C7.09961 1.25 3.41797-2.44141 3.41797-7.05078C3.41797-11.6602 7.08984-15.3516 11.6992-15.3516C16.3086-15.3516 20.0098-11.6602 20.0098-7.05078C20.0098-2.44141 16.3184 1.25 11.709 1.25ZM7.17773-7.05078C7.17773-6.57227 7.50977-6.25 8.00781-6.25L10.8789-6.25L10.8789-3.36914C10.8789-2.88086 11.2109-2.53906 11.6895-2.53906C12.1777-2.53906 12.5195-2.87109 12.5195-3.36914L12.5195-6.25L15.4004-6.25C15.8887-6.25 16.2305-6.57227 16.2305-7.05078C16.2305-7.53906 15.8887-7.88086 15.4004-7.88086L12.5195-7.88086L12.5195-10.752C12.5195-11.25 12.1777-11.5918 11.6895-11.5918C11.2109-11.5918 10.8789-11.25 10.8789-10.752L10.8789-7.88086L8.00781-7.88086C7.50977-7.88086 7.17773-7.53906 7.17773-7.05078Z"/>
  </g>
  <g transform="matrix(1 0 0 1 305.646 1933)">
   <path d="M14.9707 5.66406C21.9336 5.66406 27.6953-0.0976562 27.6953-7.05078C27.6953-14.0137 21.9238-19.7754 14.9609-19.7754C8.00781-19.7754 2.25586-14.0137 2.25586-7.05078C2.25586-0.0976562 8.01758 5.66406 14.9707 5.66406ZM14.9707 3.84766C8.93555 3.84766 4.08203-1.01562 4.08203-7.05078C4.08203-13.0957 8.92578-17.9492 14.9609-17.9492C21.0059-17.9492 25.8691-13.0957 25.8691-7.05078C25.8691-1.01562 21.0156 3.84766 14.9707 3.84766ZM9.19922-7.05078C9.19922-6.5332 9.57031-6.17188 10.1172-6.17188L14.0625-6.17188L14.0625-2.2168C14.0625-1.67969 14.4336-1.29883 14.9512-1.29883C15.4883-1.29883 15.8594-1.66992 15.8594-2.2168L15.8594-6.17188L19.8145-6.17188C20.3516-6.17188 20.7324-6.5332 20.7324-7.05078C20.7324-7.59766 20.3613-7.96875 19.8145-7.96875L15.8594-7.96875L15.8594-11.9141C15.8594-12.4609 15.4883-12.8418 14.9512-12.8418C14.4336-12.8418 14.0625-12.4609 14.0625-11.9141L14.0625-7.96875L10.1172-7.96875C9.57031-7.96875 9.19922-7.59766 9.19922-7.05078Z"/>
  </g>
  <text style="stroke:none;fill:black;font-family:sans-serif;font-size:13;font-weight:bold;" transform="matrix(1 0 0 1 263 1953)">Design Variations</text>
  <text style="stroke:none;fill:black;font-family:sans-serif;font-size:13;" transform="matrix(1 0 0 1 263 1971)">Symbols are supported in up to nine weights and three scales.</text>
  <text style="stroke:none;fill:black;font-family:sans-serif;font-size:13;" transform="matrix(1 0 0 1 263 1989)">For optimal layout with text and other symbols, vertically align</text>
  <text style="stroke:none;fill:black;font-family:sans-serif;font-size:13;" transform="matrix(1 0 0 1 263 2007)">symbols with the adjacent text.</text>
  <line style="fill:none;stroke:#00AEEF;stroke-width:0.5;opacity:1.0;" x1="776" x2="776" y1="1919" y2="1933"/>
  <g transform="matrix(1 0 0 1 776 1933)">
   <path d="M3.31055 0.15625C3.82812 0.15625 4.08203-0.0390625 4.26758-0.585938L5.52734-4.0332L11.2891-4.0332L12.5488-0.585938C12.7344-0.0390625 12.9883 0.15625 13.4961 0.15625C14.0137 0.15625 14.3457-0.15625 14.3457-0.644531C14.3457-0.810547 14.3164-0.966797 14.2383-1.17188L9.6582-13.3691C9.43359-13.9648 9.0332-14.2676 8.4082-14.2676C7.80273-14.2676 7.39258-13.9746 7.17773-13.3789L2.59766-1.16211C2.51953-0.957031 2.49023-0.800781 2.49023-0.634766C2.49023-0.146484 2.80273 0.15625 3.31055 0.15625ZM6.00586-5.51758L8.37891-12.0898L8.42773-12.0898L10.8008-5.51758Z"/>
  </g>
  <line style="fill:none;stroke:#00AEEF;stroke-width:0.5;opacity:1.0;" x1="793.197" x2="793.197" y1="1919" y2="1933"/>
  <text style="stroke:none;fill:black;font-family:sans-serif;font-size:13;font-weight:bold;" transform="matrix(1 0 0 1 776 1953)">Margins</text>
  <text style="stroke:none;fill:black;font-family:sans-serif;font-size:13;" transform="matrix(1 0 0 1 776 1971)">Leading and trailing margins on the left and right side of each symbol</text>
  <text style="stroke:none;fill:black;font-family:sans-serif;font-size:13;" transform="matrix(1 0 0 1 776 1989)">can be adjusted by modifying the x-location of the margin guidelines.</text>
  <text style="stroke:none;fill:black;font-family:sans-serif;font-size:13;" transform="matrix(1 0 0 1 776 2007)">Modifications are automatically applied proportionally to all</text>
  <text style="stroke:none;fill:black;font-family:sans-serif;font-size:13;" transform="matrix(1 0 0 1 776 2025)">scales and weights.</text>
  <g transform="matrix(1 0 0 1 1289 1933)">
   <path d="M2.8418 1.86523L4.54102 3.57422C5.40039 4.44336 6.38672 4.38477 7.31445 3.35938L18.0078-8.42773L17.041-9.4043L6.42578 2.27539C6.07422 2.67578 5.74219 2.77344 5.27344 2.30469L4.10156 1.14258C3.63281 0.683594 3.74023 0.341797 4.14062-0.0195312L15.6152-10.8203L14.6387-11.7871L3.04688-0.898438C2.06055 0.0195312 1.98242 0.996094 2.8418 1.86523ZM9.25781-16.3281C8.83789-15.918 8.80859-15.3418 9.04297-14.9512C9.27734-14.5898 9.73633-14.3555 10.3809-14.5215C11.8457-14.8633 13.3691-14.9219 14.7949-13.9844L14.209-12.5293C13.8672-11.6992 14.043-11.1133 14.5801-10.5664L16.875-8.25195C17.3633-7.76367 17.7734-7.74414 18.3398-7.8418L19.4043-8.03711L20.0684-7.36328L20.0293-6.80664C19.9902-6.30859 20.1172-5.92773 20.6055-5.44922L21.3672-4.70703C21.8457-4.22852 22.4609-4.19922 22.9297-4.66797L25.8398-7.58789C26.3086-8.05664 26.2891-8.65234 25.8105-9.13086L25.0391-9.89258C24.5605-10.3711 24.1895-10.5273 23.7109-10.4883L23.1348-10.4395L22.4902-11.0742L22.7344-12.1973C22.8613-12.7637 22.7051-13.2031 22.1191-13.7891L19.9219-15.9766C16.582-19.2969 12.1484-19.2188 9.25781-16.3281ZM10.752-15.957C13.1836-17.7344 16.4746-17.4316 18.7012-15.2051L21.1328-12.793C21.3672-12.5586 21.4062-12.373 21.3379-12.0312L21.0156-10.5469L22.5195-9.0625L23.5059-9.12109C23.7598-9.13086 23.8379-9.11133 24.0332-8.91602L24.6094-8.33984L22.168-5.89844L21.5918-6.47461C21.3965-6.66992 21.3672-6.74805 21.377-7.01172L21.4453-7.98828L19.9512-9.47266L18.4277-9.21875C18.1055-9.15039 17.959-9.17969 17.7148-9.41406L15.7129-11.416C15.459-11.6504 15.4297-11.8164 15.5859-12.1875L16.4648-14.2773C14.9023-15.7324 12.8711-16.3574 10.8398-15.7617C10.6836-15.7227 10.625-15.8496 10.752-15.957Z"/>
  </g>
  <text style="stroke:none;fill:black;font-family:sans-serif;font-size:13;font-weight:bold;" transform="matrix(1 0 0 1 1289 1953)">Exporting</text>
  <text style="stroke:none;fill:black;font-family:sans-serif;font-size:13;" transform="matrix(1 0 0 1 1289 1971)">Symbols should be outlined when exporting to ensure the</text>
  <text style="stroke:none;fill:black;font-family:sans-serif;font-size:13;" transform="matrix(1 0 0 1 1289 1989)">design is preserved when submitting to Xcode.</text>
  <text id="template-version" style="stroke:none;fill:black;font-family:sans-serif;font-size:13;text-anchor:end;" transform="matrix(1 0 0 1 3036 1933)">Template v.4.0</text>
  <text style="stroke:none;fill:black;font-family:sans-serif;font-size:13;text-anchor:end;" transform="matrix(1 0 0 1 3036 1951)">Requires Xcode 14 or greater</text>
  <text id="descriptive-name" style="stroke:none;fill:black;font-family:sans-serif;font-size:13;text-anchor:end;" transform="matrix(1 0 0 1 3036 1969)">Generated from house</text>
  <text style="stroke:none;fill:black;font-family:sans-serif;font-size:13;text-anchor:end;" transform="matrix(1 0 0 1 3036 1987)">Typeset at 100 points</text>
  <text style="stroke:none;fill:black;font-family:sans-serif;font-size:13;" transform="matrix(1 0 0 1 263 726)">Small</text>
  <text style="stroke:none;fill:black;font-family:sans-serif;font-size:13;" transform="matrix(1 0 0 1 263 1156)">Medium</text>
  <text style="stroke:none;fill:black;font-family:sans-serif;font-size:13;" transform="matrix(1 0 0 1 263 1586)">Large</text>
 </g>
 <g id="Guides">
  <g id="H-reference" style="fill:#27AAE1;stroke:none;" transform="matrix(1 0 0 1 339 696)">
   <path d="M0.993654 0L3.63775 0L29.3281-67.1323L30.0303-67.1323L30.0303-70.459L28.1226-70.459ZM11.6885-24.4799L46.9815-24.4799L46.2315-26.7285L12.4385-26.7285ZM55.1196 0L57.7637 0L30.6382-70.459L29.4326-70.459L29.4326-67.1323Z"/>
  </g>
  <line id="Baseline-S" style="fill:none;stroke:#27AAE1;opacity:1;stroke-width:0.5;" x1="263" x2="3036" y1="696" y2="696"/>
  <line id="Capline-S" style="fill:none;stroke:#27AAE1;opacity:1;stroke-width:0.5;" x1="263" x2="3036" y1="625.541" y2="625.541"/>
  <g id="H-reference" style="fill:#27AAE1;stroke:none;" transform="matrix(1 0 0 1 339 1126)">
   <path d="M0.993654 0L3.63775 0L29.3281-67.1323L30.0303-67.1323L30.0303-70.459L28.1226-70.459ZM11.6885-24.4799L46.9815-24.4799L46.2315-26.7285L12.4385-26.7285ZM55.1196 0L57.7637 0L30.6382-70.459L29.4326-70.459L29.4326-67.1323Z"/>
  </g>
  <line id="Baseline-M" style="fill:none;stroke:#27AAE1;opacity:1;stroke-width:0.5;" x1="263" x2="3036" y1="1126" y2="1126"/>
  <line id="Capline-M" style="fill:none;stroke:#27AAE1;opacity:1;stroke-width:0.5;" x1="263" x2="3036" y1="1055.54" y2="1055.54"/>
  <g id="H-reference" style="fill:#27AAE1;stroke:none;" transform="matrix(1 0 0 1 339 1556)">
   <path d="M0.993654 0L3.63775 0L29.3281-67.1323L30.0303-67.1323L30.0303-70.459L28.1226-70.459ZM11.6885-24.4799L46.9815-24.4799L46.2315-26.7285L12.4385-26.7285ZM55.1196 0L57.7637 0L30.6382-70.459L29.4326-70.459L29.4326-67.1323Z"/>
  </g>
  <line id="Baseline-L" style="fill:none;stroke:#27AAE1;opacity:1;stroke-width:0.5;" x1="263" x2="3036" y1="1556" y2="1556"/>
  <line id="Capline-L" style="fill:none;stroke:#27AAE1;opacity:1;stroke-width:0.5;" x1="263" x2="3036" y1="1485.54" y2="1485.54"/>
  <line id="left-margin-Regular-M" style="fill:none;stroke:#00AEEF;stroke-width:0.5;opacity:1.0;" x1="1379.13" x2="1379.13" y1="1030.79" y2="1150.12"/>
  <line id="right-margin-Regular-M" style="fill:none;stroke:#00AEEF;stroke-width:0.5;opacity:1.0;" x1="1520.56" x2="1520.56" y1="1030.79" y2="1150.12"/>
 </g>
 <g id="Symbols">
  <g id="Black-L" transform="matrix(1 0 0 1 2834.53 1556)">
   <path d="M80.8919 16.802L116.846 16.802L116.846-27.4322C116.846-30.531 114.845-32.5319 111.747-32.5319L86.0501-32.5319C82.9513-32.5319 80.8919-30.531 80.8919-27.4322ZM56.1642 30.9093L141.454 30.9093C153.028 30.9093 159.95 24.0265 159.95 13.1387L159.95-57.3547L139.97-71.0727L139.97 5.29174C139.97 8.86895 137.911 10.9283 134.375 10.9283L63.2218 10.9283C59.6875 10.9283 57.649 8.86895 57.649 5.29174L57.649-71.0703L37.6471-57.3547L37.6471 13.1387C37.6471 24.0277 44.5692 30.9093 56.1642 30.9093ZM16.084-43.6706C16.084-38.1003 20.0264-34.2082 26.0826-34.2082C28.7128-34.2082 31.4898-35.4365 33.7979-37.3889L94.733-88.4867C97.4507-90.7879 100.406-90.7719 103.148-88.4867L163.961-37.3889C166.29-35.4365 169.067-34.2082 171.697-34.2082C177.609-34.2082 181.654-37.9129 181.654-43.6082C181.654-46.5745 180.199-49.5835 177.633-51.7343L112.042-106.842C104.161-113.458 93.7431-113.458 85.8594-106.842L20.126-51.6759C17.5599-49.5251 16.084-46.4912 16.084-43.6706ZM135.255-81.5024L159.95-60.9005L159.95-95.7709C159.95-98.8589 157.956-100.832 154.889-100.832L140.395-100.832C137.307-100.832 135.255-98.8589 135.255-95.7709Z"/>
  </g>
  <g id="Heavy-L" transform="matrix(1 0 0 1 2539.78 1556)">
   <path d="M78.9109 17.4353L114.903 17.4353L114.903-27.2424C114.903-30.27 112.938-32.2356 109.91-32.2356L83.9487-32.2356C80.9211-32.2356 78.9109-30.27 78.9109-27.2424ZM54.2019 29.6306L139.453 29.6306C150.371 29.6306 156.856 23.1945 156.856 12.8395L156.856-57.4443L139.361-69.4462L139.361 6.27845C139.361 10.0256 137.257 12.1302 133.57 12.1302L60.0552 12.1302C56.374 12.1302 54.2997 10.0256 54.2997 6.27845L54.2997-69.4349L36.7691-57.4443L36.7691 12.8395C36.7691 23.2001 43.2543 29.6306 54.2019 29.6306ZM16.084-43.889C16.084-39.0626 19.5477-35.5517 24.926-35.5517C27.3207-35.5517 29.7564-36.6994 31.8003-38.4241L93.2161-89.9469C95.6432-91.9989 98.2948-91.9912 100.74-89.9469L162.044-38.4241C164.118-36.6994 166.554-35.5517 168.948-35.5517C174.121-35.5517 177.73-38.791 177.73-43.7985C177.73-46.4879 176.49-49.0673 174.221-50.9672L108.733-106.002C101.634-111.968 92.3636-111.968 85.253-106.002L19.6236-50.9226C17.3542-49.0227 16.084-46.3672 16.084-43.889ZM134.416-79.2713L156.856-60.5049L156.856-94.0167C156.856-96.9938 154.924-98.8955 151.977-98.8955L139.369-98.8955C136.392-98.8955 134.416-96.9938 134.416-94.0167Z"/>
  </g>
  <g id="Bold-L" transform="matrix(1 0 0 1 2245.57 1556)">
   <path d="M76.4298 18.2936L112.379 18.2936L112.379-26.9819C112.379-29.8951 110.474-31.7998 107.561-31.7998L81.2769-31.7998C78.3637-31.7998 76.4298-29.8951 76.4298-26.9819ZM51.7365 28.152L136.897 28.152C147.008 28.152 152.94 22.2692 152.94 12.5824L152.94-57.4402L138.511-67.3509L138.511 7.53747C138.511 11.5444 136.345 13.7102 132.415 13.7102L56.181 13.7102C52.2633 13.7102 50.1355 11.5444 50.1355 7.53747L50.1355-67.3245L35.6557-57.4402L35.6557 12.5824C35.6557 22.2824 41.5881 28.152 51.7365 28.152ZM16.084-44.1655C16.084-40.2462 18.956-37.2339 23.4744-37.2339C25.5547-37.2339 27.5603-38.2594 29.2739-39.6998L91.1846-91.6633C93.3027-93.4526 95.6225-93.4675 97.7733-91.6633L159.573-39.6998C161.324-38.2594 163.33-37.2339 165.41-37.2339C169.676-37.2339 172.725-39.9044 172.725-44.0515C172.725-46.3803 171.739-48.4444 169.83-50.0368L104.63-104.852C98.4616-110.049 90.5608-110.049 84.3659-104.852L19.0161-50.0076C17.108-48.4152 16.084-46.2284 16.084-44.1655ZM133.311-76.4009L152.94-59.9312L152.94-91.9018C152.94-94.6959 151.115-96.4832 148.358-96.4832L137.96-96.4832C135.166-96.4832 133.311-94.6959 133.311-91.9018Z"/>
  </g>
  <g id="Semibold-L" transform="matrix(1 0 0 1 1950.59 1556)">
   <path d="M74.7194 18.8853L110.638 18.8853L110.638-26.8024C110.638-29.6366 108.776-31.4993 105.942-31.4993L79.4349-31.4993C76.6006-31.4993 74.7194-29.6366 74.7194-26.8024ZM50.0368 27.1326L135.135 27.1326C144.689 27.1326 150.24 21.6312 150.24 12.4052L150.24-57.4374L137.925-65.9065L137.925 8.40543C137.925 12.5914 135.717 14.7995 131.618 14.7995L53.5102 14.7995C49.4294 14.7995 47.2647 12.5914 47.2647 8.40543L47.2647-65.8696L34.8882-57.4374L34.8882 12.4052C34.8882 21.6497 40.4394 27.1326 50.0368 27.1326ZM16.084-44.3561C16.084-41.0622 18.5481-38.3936 22.4736-38.3936C24.3373-38.3936 26.0463-39.3349 27.5322-40.5793L89.784-92.8466C91.6893-94.4548 93.7803-94.4853 95.7282-92.8466L157.869-40.5793C159.398-39.3349 161.107-38.3936 162.971-38.3936C166.611-38.3936 169.274-40.6719 169.274-44.226C169.274-46.3062 168.463-48.015 166.804-49.3955L101.801-104.06C96.2747-108.726 89.3179-108.726 83.7544-104.06L18.5973-49.3769C16.9383-47.9964 16.084-46.1327 16.084-44.3561ZM132.55-74.422L150.24-59.5357L150.24-90.4438C150.24-93.1117 148.488-94.8201 145.864-94.8201L136.988-94.8201C134.32-94.8201 132.55-93.1117 132.55-90.4438Z"/>
  </g>
  <g id="Medium-L" transform="matrix(1 0 0 1 1655.18 1556)">
   <path d="M73.4225 19.334L109.319 19.334L109.319-26.6662C109.319-29.4407 107.488-31.2715 104.714-31.2715L78.0382-31.2715C75.2638-31.2715 73.4225-29.4407 73.4225-26.6662ZM48.748 26.3597L133.799 26.3597C142.931 26.3597 148.193 21.1475 148.193 12.2708L148.193-57.4352L137.481-64.8113L137.481 9.06356C137.481 13.3853 135.241 15.6254 131.014 15.6254L51.485 15.6254C47.2807 15.6254 45.0879 13.3853 45.0879 9.06356L45.0879-64.7664L34.3062-57.4352L34.3062 12.2708C34.3062 21.17 39.5684 26.3597 48.748 26.3597ZM16.084-44.5006C16.084-41.6809 18.2388-39.2729 21.7148-39.2729C23.4141-39.2729 24.8983-40.1503 26.2116-41.2462L88.7221-93.7438C90.4658-95.2147 92.3834-95.2571 94.1776-93.7438L156.577-41.2462C157.938-40.1503 159.422-39.2729 161.121-39.2729C164.288-39.2729 166.657-41.2539 166.657-44.3582C166.657-46.2499 165.979-47.6893 164.509-48.9091L99.6565-103.459C94.6165-107.723 88.3755-107.723 83.2906-103.459L18.2798-48.8986C16.8097-47.6788 16.084-46.0602 16.084-44.5006ZM131.972-72.9215L148.193-59.2359L148.193-89.3383C148.193-91.9106 146.497-93.5591 143.972-93.5591L136.251-93.5591C133.679-93.5591 131.972-91.9106 131.972-89.3383Z"/>
  </g>
  <g id="Regular-L" transform="matrix(1 0 0 1 1360.18 1556)">
   <path d="M71.7308 19.9192L107.598 19.9192L107.598-26.4886C107.598-29.1851 105.808-30.9743 103.112-30.9743L76.2165-30.9743C73.5201-30.9743 71.7308-29.1851 71.7308-26.4886ZM47.067 25.3516L132.056 25.3516C140.638 25.3516 145.523 20.5166 145.523 12.0955L145.523-57.4324L136.902-63.3827L136.902 9.92198C136.902 14.4208 134.62 16.7028 130.226 16.7028L48.8435 16.7028C44.4779 16.7028 42.2487 14.4208 42.2487 9.92198L42.2487-63.3274L33.5471-57.4324L33.5471 12.0955C33.5471 20.5443 38.4323 25.3516 47.067 25.3516ZM16.084-44.689C16.084-42.4879 17.8354-40.4199 20.725-40.4199C22.21-40.4199 23.401-41.2139 24.489-42.116L87.337-94.914C88.8701-96.2058 90.5615-96.2637 92.1549-94.914L154.892-42.116C156.033-41.2139 157.224-40.4199 158.709-40.4199C161.257-40.4199 163.245-42.013 163.245-44.5307C163.245-46.1766 162.74-47.2646 161.516-48.2748L96.8589-102.676C92.4537-106.415 87.1464-106.415 82.6858-102.676L17.8656-48.2748C16.6418-47.2646 16.084-45.9656 16.084-44.689ZM131.219-70.9644L145.523-58.8447L145.523-87.8963C145.523-90.3438 143.899-91.9144 141.505-91.9144L135.29-91.9144C132.843-91.9144 131.219-90.3438 131.219-87.8963Z"/>
  </g>
  <g id="Light-L" transform="matrix(1 0 0 1 1065.66 1556)">
   <path d="M69.8414 20.9879L105.098 20.9879L105.098-26.1451C105.098-28.5934 103.461-30.23 101.013-30.23L73.9263-30.23C71.478-30.23 69.8414-28.5934 69.8414-26.1451ZM45.1394 25.0081L129.784 25.0081C137.851 25.0081 142.278 20.5548 142.278 12.6489L142.278-56.6881L135.699-61.417L135.699 11.0289C135.699 16.024 133.341 18.3823 128.413 18.3823L46.4769 18.3823C41.596 18.3823 39.2714 16.024 39.2714 11.0289L39.2714-61.3235L32.6119-56.6881L32.6119 12.6489C32.6119 20.6015 37.0391 25.0081 45.1394 25.0081ZM16.084-44.9181C16.084-43.2513 17.4346-41.6986 19.599-41.6986C20.7214-41.6986 21.5688-42.2636 22.4087-42.9557L84.9513-95.5057C86.5989-96.912 88.3476-97.0653 90.2082-95.5057L152.564-42.9557C153.437-42.2636 154.285-41.6986 155.407-41.6986C157.383-41.6986 158.855-42.9482 158.855-44.817C158.855-46.1003 158.445-46.9402 157.432-47.7595L93.9961-101.187C89.9917-104.621 85.2951-104.621 81.1971-101.187L17.5411-47.7595C16.5273-46.9402 16.084-45.9656 16.084-44.9181ZM130.036-68.2924L142.278-57.9095L142.278-86.8084C142.278-88.8361 140.922-90.1585 138.928-90.1585L133.42-90.1585C131.392-90.1585 130.036-88.8361 130.036-86.8084Z"/>
  </g>
  <g id="Thin-L" transform="matrix(1 0 0 1 771.856 1556)">
   <path d="M67.3425 22.4015L101.791 22.4015L101.791-25.6907C101.791-27.8109 100.356-29.2455 98.2361-29.2455L70.8973-29.2455C68.7771-29.2455 67.3425-27.8109 67.3425-25.6907ZM42.59 24.5537L126.781 24.5537C134.166 24.5537 137.987 20.6053 137.987 13.381L137.987-55.7037L134.109-58.817L134.109 12.493C134.109 18.1443 131.65 20.6035 126.015 20.6035L43.347 20.6035C37.7845 20.6035 35.3337 18.1443 35.3337 12.493L35.3337-58.6731L31.375-55.7037L31.375 13.381C31.375 20.6773 35.1964 24.5537 42.59 24.5537ZM16.084-45.221C16.084-44.261 16.9045-43.3898 18.1097-43.3898C18.7525-43.3898 19.1456-43.6519 19.6574-44.0664L81.7961-96.2882C83.5952-97.8459 85.4195-98.1254 87.6336-96.2882L149.484-44.0664C150.005-43.6519 150.398-43.3898 151.041-43.3898C152.259-43.3898 153.049-44.185 153.049-45.1957C153.049-45.9993 152.766-46.5111 152.03-47.0779L90.2099-99.2182C86.7355-102.248 82.8466-102.248 79.2283-99.2182L17.112-47.0779C16.3759-46.5111 16.084-45.9656 16.084-45.221ZM128.471-64.7586L137.987-56.6727L137.987-85.3697C137.987-86.842 136.984-87.8363 135.521-87.8363L130.946-87.8363C129.474-87.8363 128.471-86.842 128.471-85.3697Z"/>
  </g>
  <g id="Ultralight-L" transform="matrix(1 0 0 1 476.631 1556)">
   <path d="M66.0625 23.1255L100.097 23.1255L100.097-25.458C100.097-27.4101 98.766-28.7413 96.8139-28.7413L69.3458-28.7413C67.3937-28.7413 66.0625-27.4101 66.0625-25.458ZM41.2842 24.321L125.242 24.321C132.278 24.321 135.789 20.6311 135.789 13.7559L135.789-55.1995L133.294-57.4854L133.294 13.2428C133.294 19.2303 130.783 21.7413 124.787 21.7413L41.7438 21.7413C35.8323 21.7413 33.3168 19.2303 33.3168 13.2428L33.3168-57.3156L30.7415-55.1995L30.7415 13.7559C30.7415 20.716 34.2526 24.321 41.2842 24.321ZM16.084-45.3761C16.084-44.7781 16.633-44.2561 17.3469-44.2561C17.7441-44.2561 17.9045-44.363 18.2482-44.6352L80.18-96.689C82.0566-98.3243 83.9198-98.6684 86.3149-96.689L147.907-44.6352C148.246-44.363 148.407-44.2561 148.804-44.2561C149.634-44.2561 150.076-44.8185 150.076-45.3896C150.076-45.9476 149.857-46.2913 149.263-46.7289L88.2705-98.2098C85.0677-101.033 81.5925-101.033 78.2198-98.2098L16.8922-46.7289C16.2983-46.2913 16.084-45.9656 16.084-45.3761ZM127.67-62.9486L135.789-56.0392L135.789-84.6327C135.789-85.8206 134.968-86.6468 133.775-86.6468L129.679-86.6468C128.491-86.6468 127.67-85.8206 127.67-84.6327Z"/>
  </g>
  <g id="Black-M" transform="matrix(1 0 0 1 2855.41 1126)">
   <path d="M64.117 4.68203L91.857 4.68203L91.857-29.3051C91.857-31.7335 90.2971-33.2934 87.8688-33.2934L68.1623-33.2934C65.7339-33.2934 64.117-31.7335 64.117-29.3051ZM44.9381 17.0634L111.002 17.0634C120.464 17.0634 126.14 11.3988 126.14 2.57555L126.14-52.1929L108.801-64.1303L108.801-4.53403C108.801-1.84145 107.235-0.274551 104.553-0.274551L51.3815-0.274551C48.6996-0.274551 47.1382-1.84145 47.1382-4.53403L47.1382-64.1309L29.7947-52.1929L29.7947 2.57555C29.7947 11.3985 35.4709 17.0634 44.9381 17.0634ZM12.4609-41.6125C12.4609-36.73 15.8724-33.4568 21.0487-33.4568C23.2397-33.4568 25.638-34.4467 27.6197-36.1266L74.3741-75.3153C76.7448-77.3278 79.3033-77.3212 81.7184-75.3153L128.36-36.1266C130.347-34.4467 132.745-33.4568 134.936-33.4568C140.074-33.4568 143.513-36.6806 143.513-41.596C143.513-44.083 142.214-46.7498 139.999-48.6059L89.2596-91.2317C82.536-96.8742 73.5614-96.8742 66.8384-91.2317L15.9803-48.5488C13.7656-46.6927 12.4609-44.061 12.4609-41.6125ZM105.348-72.6345L126.14-55.3312L126.14-83.4936C126.14-85.9245 124.578-87.4806 122.153-87.4806L109.398-87.4806C106.967-87.4806 105.348-85.9245 105.348-83.4936Z"/>
  </g>
  <g id="Heavy-M" transform="matrix(1 0 0 1 2560.42 1126)">
   <path d="M62.3547 5.20251L90.1881 5.20251L90.1881-29.1513C90.1881-31.5329 88.6486-33.0724 86.267-33.0724L66.3193-33.0724C63.9377-33.0724 62.3547-31.5329 62.3547-29.1513ZM43.1976 15.8451L109.256 15.8451C118.123 15.8451 123.414 10.582 123.414 2.23198L123.414-52.3492L108.317-62.7216L108.317-3.67157C108.317-0.858617 106.713 0.745461 103.933 0.745461L48.5042 0.745461C45.7263 0.745461 44.1387-0.858617 44.1387-3.67157L44.1387-62.717L29.0227-52.3492L29.0227 2.23198C29.0227 10.5842 34.314 15.8451 43.1976 15.8451ZM12.4609-41.8049C12.4609-37.6003 15.4414-34.6522 20.022-34.6522C22.0162-34.6522 24.1125-35.5845 25.8587-37.0611L73.1113-76.6882C75.1874-78.4465 77.4436-78.4392 79.5442-76.6882L126.7-37.0611C128.463-35.5845 130.559-34.6522 132.554-34.6522C137.022-34.6522 140.082-37.4526 140.082-41.7557C140.082-44.0054 138.984-46.2751 137.04-47.9036L86.289-90.5472C80.2927-95.5828 72.3837-95.5828 66.3829-90.5472L15.5191-47.8599C13.5751-46.2315 12.4609-43.9398 12.4609-41.8049ZM104.637-70.6999L123.414-55.0308L123.414-81.8792C123.414-84.2403 121.889-85.7497 119.544-85.7497L108.568-85.7497C106.207-85.7497 104.637-84.2403 104.637-81.8792Z"/>
  </g>
  <g id="Bold-M" transform="matrix(1 0 0 1 2265.63 1126)">
   <path d="M60.3833 5.78474L88.3211 5.78474L88.3211-28.9792C88.3211-31.3086 86.8046-32.8252 84.4752-32.8252L64.2577-32.8252C61.9284-32.8252 60.3833-31.3086 60.3833-28.9792ZM41.2507 14.4822L107.302 14.4822C115.505 14.4822 120.366 9.66821 120.366 1.84765L120.366-52.5241L107.775-61.1457L107.775-2.70679C107.775 0.240825 106.129 1.88649 103.239 1.88649L45.2856 1.88649C42.4004 1.88649 40.7833 0.240825 40.7833-2.70679L40.7833-61.1355L28.159-52.5241L28.159 1.84765C28.159 9.67334 33.0199 14.4822 41.2507 14.4822ZM12.4609-42.0201C12.4609-38.5739 14.9593-35.9895 18.8734-35.9895C20.6475-35.9895 22.4059-36.8572 23.8889-38.1064L71.6986-78.2239C73.4452-79.6979 75.3633-79.6898 77.112-78.2239L124.844-38.1064C126.356-36.8572 128.114-35.9895 129.888-35.9895C133.607-35.9895 136.243-38.3163 136.243-41.9342C136.243-43.9186 135.371-45.7441 133.73-47.1179L82.9658-89.7815C77.7834-94.1382 71.0662-94.1382 65.8734-89.7815L15.0032-47.0893C13.362-45.7156 12.4609-43.8041 12.4609-42.0201ZM103.842-68.5359L120.366-54.6947L120.366-80.0731C120.366-82.3563 118.88-83.8134 116.625-83.8134L107.639-83.8134C105.356-83.8134 103.842-82.3563 103.842-80.0731Z"/>
  </g>
  <g id="Semibold-M" transform="matrix(1 0 0 1 1970.24 1126)">
   <path d="M59.0242 6.18612L87.034 6.18612L87.034-28.8606C87.034-31.154 85.5333-32.6547 83.2399-32.6547L62.8365-32.6547C60.5431-32.6547 59.0242-31.154 59.0242-28.8606ZM39.9085 13.5426L105.956 13.5426C113.7 13.5426 118.264 9.03827 118.264 1.58269L118.264-52.6446L107.401-60.0594L107.401-2.04167C107.401 0.998775 105.727 2.67311 102.761 2.67311L43.0667 2.67311C40.1074 2.67311 38.4701 0.998775 38.4701-2.04167L38.4701-60.0452L27.5636-52.6446L27.5636 1.58269C27.5636 9.04538 32.1278 13.5426 39.9085 13.5426ZM12.4609-42.1685C12.4609-39.2451 14.6269-36.9113 18.0816-36.9113C19.704-36.9113 21.2294-37.7346 22.5309-38.8271L70.7247-79.2826C72.2441-80.5606 73.9292-80.552 75.4353-79.2826L123.564-38.8271C124.903-37.7346 126.428-36.9113 128.051-36.9113C131.253-36.9113 133.597-38.9117 133.597-42.0573C133.597-43.8587 132.88-45.3781 131.448-46.5763L80.6749-89.2536C76.0534-93.1423 70.1579-93.1423 65.5222-89.2536L14.6475-46.5581C13.2151-45.3599 12.4609-43.7106 12.4609-42.1685ZM103.294-67.0441L118.264-54.463L118.264-78.828C118.264-81.0575 116.806-82.4785 114.613-82.4785L106.999-82.4785C104.77-82.4785 103.294-81.0575 103.294-78.828Z"/>
  </g>
  <g id="Medium-M" transform="matrix(1 0 0 1 1674.53 1126)">
   <path d="M57.9937 6.49047L86.0581 6.49047L86.0581-28.7707C86.0581-31.0367 84.5693-32.5255 82.3033-32.5255L61.7588-32.5255C59.4928-32.5255 57.9937-31.0367 57.9937-28.7707ZM38.8907 12.8302L104.935 12.8302C112.331 12.8302 116.67 8.56062 116.67 1.38179L116.67-52.736L107.118-59.2356L107.118-1.53735C107.118 1.57348 105.422 3.26956 102.398 3.26956L41.3842 3.26956C38.3689 3.26956 36.7162 1.57348 36.7162-1.53735L36.7162-59.2184L27.1121-52.736L27.1121 1.38179C27.1121 8.56922 31.4514 12.8302 38.8907 12.8302ZM12.4609-42.281C12.4609-39.754 14.3749-37.6103 17.4813-37.6103C18.9885-37.6103 20.3374-38.3999 21.5012-39.3735L69.9863-80.0854C71.3335-81.2148 72.8417-81.2058 74.1639-80.0854L122.594-39.3735C123.801-38.3999 125.15-37.6103 126.657-37.6103C129.468-37.6103 131.591-39.3632 131.591-42.1507C131.591-43.8134 130.992-45.1005 129.717-46.1656L78.9378-88.8533C74.7417-92.3872 69.4692-92.3872 65.2558-88.8533L14.3779-46.1553C13.1037-45.0903 12.4609-43.6397 12.4609-42.281ZM102.878-65.9129L116.67-54.2873L116.67-77.884C116.67-80.0726 115.233-81.4664 113.088-81.4664L106.514-81.4664C104.325-81.4664 102.878-80.0726 102.878-77.884Z"/>
  </g>
  <g id="Regular-M" transform="matrix(1 0 0 1 1379.13 1126)">
   <path d="M56.6496 6.88744L84.7852 6.88744L84.7852-28.6533C84.7852-30.8838 83.312-32.357 81.0816-32.357L60.3532-32.357C58.1228-32.357 56.6496-30.8838 56.6496-28.6533ZM37.5633 11.901L103.603 11.901C110.546 11.901 114.591 7.93761 114.591 1.11975L114.591-52.8552L106.749-58.1612L106.749-0.879544C106.749 2.3231 105.024 4.04753 101.925 4.04753L39.1897 4.04753C36.1011 4.04753 34.4285 2.3231 34.4285-0.879544L34.4285-58.1401L26.5232-52.8552L26.5232 1.11975C26.5232 7.94816 30.569 11.901 37.5633 11.901ZM12.4609-42.4277C12.4609-40.4178 14.0462-38.5221 16.6982-38.5221C18.0553-38.5221 19.1738-39.2677 20.1581-40.0862L69.0231-81.1325C70.1456-82.068 71.4233-82.0585 72.5056-81.1325L121.328-40.0862C122.364-39.2677 123.483-38.5221 124.84-38.5221C127.14-38.5221 128.974-39.9521 128.974-42.2724C128.974-43.7542 128.528-44.7385 127.46-45.6299L76.672-88.3312C73.0307-91.4022 68.5709-91.4022 64.9085-88.3312L14.0261-45.6299C12.9584-44.7385 12.4609-43.5472 12.4609-42.4277ZM102.335-64.4374L114.591-54.0581L114.591-76.6526C114.591-78.7881 113.182-80.1462 111.098-80.1462L105.881-80.1462C103.745-80.1462 102.335-78.7881 102.335-76.6526Z"/>
  </g>
  <g id="Light-M" transform="matrix(1 0 0 1 1084.38 1126)">
   <path d="M54.9556 7.84565L82.5437 7.84565L82.5437-28.3453C82.5437-30.3533 81.2073-31.6896 79.1994-31.6896L58.2999-31.6896C56.2919-31.6896 54.9556-30.3533 54.9556-28.3453ZM35.835 11.593L101.567 11.593C108.047 11.593 111.683 7.97183 111.683 1.61597L111.683-52.1879L105.671-56.3988L105.671 0.112891C105.671 3.76042 103.878 5.5533 100.299 5.5533L37.068 5.5533C33.5174 5.5533 31.7591 3.76042 31.7591 0.112891L31.7591-56.3434L25.6848-52.1879L25.6848 1.61597C25.6848 7.99949 29.3199 11.593 35.835 11.593ZM12.4609-42.633C12.4609-41.1023 13.6869-39.6685 15.6886-39.6685C16.7207-39.6685 17.5312-40.2088 18.293-40.8391L66.8842-81.6629C68.1094-82.7011 69.4385-82.7771 70.7603-81.6629L119.241-40.8391C120.037-40.2088 120.848-39.6685 121.88-39.6685C123.667-39.6685 125.038-40.7905 125.038-42.5291C125.038-43.6857 124.678-44.4476 123.799-45.1679L74.1054-86.9966C70.8234-89.7938 66.9111-89.7938 63.5738-86.9966L13.7352-45.1679C12.8557-44.4476 12.4609-43.5472 12.4609-42.633ZM101.275-62.0419L111.683-53.2197L111.683-75.6773C111.683-77.4363 110.512-78.572 108.788-78.572L104.204-78.572C102.445-78.572 101.275-77.4363 101.275-75.6773Z"/>
  </g>
  <g id="Thin-M" transform="matrix(1 0 0 1 790.275 1126)">
   <path d="M52.7152 9.11297L79.5791 9.11297L79.5791-27.938C79.5791-29.6518 78.4238-30.807 76.71-30.807L55.5842-30.807C53.8705-30.807 52.7152-29.6518 52.7152-27.938ZM33.5494 11.1857L98.874 11.1857C104.743 11.1857 107.835 8.01709 107.835 2.27225L107.835-51.3053L104.245-54.0678L104.245 1.42547C104.245 5.66139 102.361 7.54479 98.1495 7.54479L34.2618 7.54479C30.1002 7.54479 28.2288 5.66139 28.2288 1.42547L28.2288-53.9672L24.5759-51.3053L24.5759 2.27225C24.5759 8.06738 27.6679 11.1857 33.5494 11.1857ZM12.4609-42.9046C12.4609-42.0075 13.2116-41.1847 14.3534-41.1847C14.9555-41.1847 15.3586-41.4535 15.8263-41.8348L64.0554-82.3644C65.4164-83.5385 66.8133-83.7276 68.452-82.3644L116.48-41.8348C116.96-41.4535 117.363-41.1847 117.965-41.1847C119.073-41.1847 119.833-41.8994 119.833-42.8685C119.833-43.5952 119.586-44.0629 118.956-44.5568L70.7108-85.2314C67.9041-87.6665 64.716-87.6665 61.8086-85.2314L13.3505-44.5568C12.7199-44.0629 12.4609-43.5472 12.4609-42.9046ZM99.8715-58.8736L107.835-52.1108L107.835-74.3873C107.835-75.6485 106.982-76.49 105.733-76.49L101.986-76.49C100.725-76.49 99.8715-75.6485 99.8715-74.3873Z"/>
  </g>
  <g id="Ultralight-M" transform="matrix(1 0 0 1 494.897 1126)">
   <path d="M51.5676 9.76208L78.0606 9.76208L78.0606-27.7294C78.0606-29.2924 76.9981-30.355 75.435-30.355L54.1933-30.355C52.6302-30.355 51.5676-29.2924 51.5676-27.7294ZM32.3786 10.977L97.4946 10.977C103.051 10.977 105.865 8.04027 105.865 2.6084L105.865-50.8532L103.515-52.8739L103.515 2.09776C103.515 6.63506 101.585 8.56482 97.0484 8.56482L32.8244 8.56482C28.3499 8.56482 26.4205 6.63506 26.4205 2.09776L26.4205-52.7501L24.0079-50.8532L24.0079 2.6084C24.0079 8.10216 26.8217 10.977 32.3786 10.977ZM12.4609-43.0437C12.4609-42.4712 12.9682-41.9614 13.6696-41.9614C14.0514-41.9614 14.2459-42.091 14.5629-42.3449L62.6065-82.7238C64.037-83.9673 65.4687-84.2145 67.2697-82.7238L115.066-42.3449C115.383-42.091 115.578-41.9614 115.96-41.9614C116.72-41.9614 117.167-42.4674 117.167-43.0424C117.167-43.5489 116.978-43.8658 116.475-44.2439L68.9721-84.3273C66.4088-86.577 63.5916-86.577 60.9045-84.3273L13.1534-44.2439C12.6504-43.8658 12.4609-43.5472 12.4609-43.0437ZM99.1528-57.2508L105.865-51.5428L105.865-73.7266C105.865-74.7328 105.174-75.4236 104.168-75.4236L100.85-75.4236C99.8441-75.4236 99.1528-74.7328 99.1528-73.7266Z"/>
  </g>
  <g id="Black-S" transform="matrix(1 0 0 1 2871.88 696)">
   <path d="M50.6836-4.05273L72.3633-4.05273L72.3633-30.6152C72.3633-32.5195 71.1426-33.7402 69.2383-33.7402L53.8574-33.7402C51.9531-33.7402 50.6836-32.5195 50.6836-30.6152ZM35.6445 6.10352L87.4023 6.10352C94.9707 6.10352 99.5117 1.5625 99.5117-5.46875L99.5117-48.4375L85.3516-58.2031L85.3516-11.377C85.3516-9.27734 84.1309-8.05664 82.0312-8.05664L41.0156-8.05664C38.916-8.05664 37.6953-9.27734 37.6953-11.377L37.6953-58.2031L23.5352-48.4375L23.5352-5.46875C23.5352 1.5625 28.0762 6.10352 35.6445 6.10352ZM9.76562-40.1855C9.76562-36.1816 12.5488-33.5449 16.748-33.5449C18.5059-33.5449 20.459-34.3262 22.0703-35.6934L58.5449-66.2598C60.498-67.9199 62.5977-67.9199 64.5996-66.2598L100.977-35.6934C102.588-34.3262 104.541-33.5449 106.299-33.5449C110.498-33.5449 113.281-36.1816 113.281-40.1855C113.281-42.1875 112.207-44.3848 110.4-45.8984L70.7031-79.248C65.2344-83.8379 57.9102-83.8379 52.4414-79.248L12.6465-45.8496C10.8398-44.3359 9.76562-42.1875 9.76562-40.1855ZM82.7148-64.9902L99.5117-51.0254L99.5117-73.4863C99.5117-75.3906 98.291-76.6113 96.3867-76.6113L85.8887-76.6113C83.9844-76.6113 82.7148-75.3906 82.7148-73.4863Z"/>
  </g>
  <g id="Heavy-S" transform="matrix(1 0 0 1 2576.38 696)">
   <path d="M49.3929-3.73005L71.2224-3.73005L71.2224-30.523C71.2224-32.4158 70.0017-33.6365 68.1089-33.6365L52.5436-33.6365C50.6509-33.6365 49.3929-32.4158 49.3929-30.523ZM34.3768 5.10089L86.1692 5.10089C93.2881 5.10089 97.5526 0.859508 97.5526-5.82601L97.5526-48.6565L85.075-57.2235L85.075-10.7662C85.075-8.62045 83.8312-7.3767 81.7086-7.3767L38.826-7.3767C36.7033-7.3767 35.4711-8.62045 35.4711-10.7662L35.4711-57.2235L22.982-48.6565L22.982-5.82601C22.982 0.859508 27.2464 5.10089 34.3768 5.10089ZM9.76562-40.3238C9.76562-36.8385 12.2261-34.4208 15.999-34.4208C17.63-34.4208 19.3642-35.179 20.8026-36.3964L57.7382-67.3661C59.4263-68.7958 61.2608-68.7843 62.9631-67.3661L99.8241-36.3964C101.274-35.179 103.008-34.4208 104.639-34.4208C108.331-34.4208 110.85-36.7348 110.85-40.2893C110.85-42.1299 109.937-44.016 108.338-45.3568L68.4904-78.8332C63.5979-82.939 57.115-82.939 52.2224-78.8332L12.2892-45.3195C10.69-43.9787 9.76562-42.0838 9.76562-40.3238ZM82.2423-63.6419L97.5526-50.8756L97.5526-72.2302C97.5526-74.1229 96.3319-75.3321 94.4506-75.3321L85.3931-75.3321C83.5003-75.3321 82.2423-74.1229 82.2423-72.2302Z"/>
  </g>
  <g id="Bold-S" transform="matrix(1 0 0 1 2281.03 696)">
   <path d="M47.9492-3.36914L69.9463-3.36914L69.9463-30.4199C69.9463-32.2998 68.7256-33.5205 66.8457-33.5205L51.0742-33.5205C49.1943-33.5205 47.9492-32.2998 47.9492-30.4199ZM32.959 3.97949L84.79 3.97949C91.4062 3.97949 95.3613 0.0732422 95.3613-6.22559L95.3613-48.9014L84.7656-56.1279L84.7656-10.083C84.7656-7.88574 83.4961-6.61621 81.3477-6.61621L36.377-6.61621C34.2285-6.61621 32.9834-7.88574 32.9834-10.083L32.9834-56.1279L22.3633-48.9014L22.3633-6.22559C22.3633 0.0732422 26.3184 3.97949 32.959 3.97949ZM9.76562-40.4785C9.76562-37.5732 11.8652-35.4004 15.1611-35.4004C16.6504-35.4004 18.1396-36.1328 19.3848-37.1826L56.8359-68.6035C58.2275-69.7754 59.7656-69.751 61.1328-68.6035L98.5352-37.1826C99.8047-36.1328 101.294-35.4004 102.783-35.4004C105.908-35.4004 108.13-37.3535 108.13-40.4053C108.13-42.0654 107.397-43.6035 106.03-44.751L66.0156-78.3691C61.7676-81.9336 56.2256-81.9336 51.9775-78.3691L11.8896-44.7266C10.5225-43.5791 9.76562-41.9678 9.76562-40.4785ZM81.7139-62.1338L95.3613-50.708L95.3613-70.8252C95.3613-72.7051 94.1406-73.9014 92.2852-73.9014L84.8389-73.9014C82.959-73.9014 81.7139-72.7051 81.7139-70.8252Z"/>
  </g>
  <g id="Semibold-S" transform="matrix(1 0 0 1 1985.26 696)">
   <path d="M46.9539-3.12031L69.0665-3.12031L69.0665-30.3488C69.0665-32.2198 67.8458-33.4405 65.9748-33.4405L50.0611-33.4405C48.1901-33.4405 46.9539-32.2198 46.9539-30.3488ZM31.9814 3.20635L83.8392 3.20635C90.1088 3.20635 93.8506-0.468848 93.8506-6.50107L93.8506-49.0702L84.5523-55.3726L84.5523-9.61201C84.5523-7.3792 83.265-6.09189 81.0988-6.09189L34.6885-6.09189C32.5223-6.09189 31.2683-7.3792 31.2683-9.61201L31.2683-55.3726L21.9367-49.0702L21.9367-6.50107C21.9367-0.468848 25.6785 3.20635 31.9814 3.20635ZM9.76562-40.5852C9.76562-38.0798 11.6164-36.0758 14.5835-36.0758C15.975-36.0758 17.2954-36.7904 18.4072-37.7247L56.2139-69.4566C57.4011-70.4508 58.7348-70.4175 59.8709-69.4566L97.6465-37.7247C98.7916-36.7904 100.112-36.0758 101.504-36.0758C104.237-36.0758 106.255-37.7801 106.255-40.4853C106.255-42.021 105.647-43.3191 104.44-44.3333L64.3094-78.0492C60.5057-81.2404 55.6124-81.2404 51.8087-78.0492L11.6142-44.3178C10.4069-43.3036 9.76562-41.8878 9.76562-40.5852ZM81.3495-61.094L93.8506-50.5925L93.8506-69.8565C93.8506-71.7275 92.6299-72.9149 90.7922-72.9149L84.4567-72.9149C82.5857-72.9149 81.3495-71.7275 81.3495-69.8565Z"/>
  </g>
  <g id="Medium-S" transform="matrix(1 0 0 1 1689.26 696)">
   <path d="M46.1992-2.93164L68.3994-2.93164L68.3994-30.2949C68.3994-32.1592 67.1787-33.3799 65.3145-33.3799L49.293-33.3799C47.4287-33.3799 46.1992-32.1592 46.1992-30.2949ZM31.2402 2.62012L83.1182 2.62012C89.125 2.62012 92.7051-0.879883 92.7051-6.70996L92.7051-49.1982L84.3906-54.7998L84.3906-9.25488C84.3906-6.99512 83.0898-5.69434 80.9102-5.69434L33.4082-5.69434C31.2285-5.69434 29.9678-6.99512 29.9678-9.25488L29.9678-54.7998L21.6133-49.1982L21.6133-6.70996C21.6133-0.879883 25.1934 2.62012 31.2402 2.62012ZM9.76562-40.666C9.76562-38.4639 11.4277-36.5879 14.1455-36.5879C15.4629-36.5879 16.6553-37.2891 17.666-38.1357L55.7422-70.1035C56.7744-70.9629 57.9531-70.9229 58.9141-70.1035L96.9727-38.1357C98.0234-37.2891 99.2158-36.5879 100.533-36.5879C102.971-36.5879 104.833-38.1035 104.833-40.5459C104.833-41.9873 104.319-43.1035 103.233-44.0166L63.0156-77.8066C59.5488-80.7148 55.1475-80.7148 51.6807-77.8066L11.4053-44.0078C10.3193-43.0947 9.76562-41.8271 9.76562-40.666ZM81.0732-60.3057L92.7051-50.5049L92.7051-69.1221C92.7051-70.9863 91.4844-72.167 89.6602-72.167L84.167-72.167C82.3027-72.167 81.0732-70.9863 81.0732-69.1221Z"/>
  </g>
  <g id="Regular-S" transform="matrix(1 0 0 1 1393.47 696)">
   <path d="M45.2148-2.68555L67.5293-2.68555L67.5293-30.2246C67.5293-32.0801 66.3086-33.3008 64.4531-33.3008L48.291-33.3008C46.4355-33.3008 45.2148-32.0801 45.2148-30.2246ZM30.2734 1.85547L82.1777 1.85547C87.8418 1.85547 91.2109-1.41602 91.2109-6.98242L91.2109-49.3652L84.1797-54.0527L84.1797-8.78906C84.1797-6.49414 82.8613-5.17578 80.6641-5.17578L31.7383-5.17578C29.541-5.17578 28.2715-6.49414 28.2715-8.78906L28.2715-54.0527L21.1914-49.3652L21.1914-6.98242C21.1914-1.41602 24.5605 1.85547 30.2734 1.85547ZM9.76562-40.7715C9.76562-38.9648 11.1816-37.2559 13.5742-37.2559C14.7949-37.2559 15.8203-37.9395 16.6992-38.6719L55.127-70.9473C55.957-71.6309 56.9336-71.582 57.666-70.9473L96.0938-38.6719C97.0215-37.9395 98.0469-37.2559 99.2676-37.2559C101.318-37.2559 102.979-38.5254 102.979-40.625C102.979-41.9434 102.588-42.8223 101.66-43.6035L61.3281-77.4902C58.3008-80.0293 54.541-80.0293 51.5137-77.4902L11.1328-43.6035C10.2051-42.8223 9.76562-41.748 9.76562-40.7715ZM80.7129-59.2773L91.2109-50.3906L91.2109-68.1641C91.2109-70.0195 89.9902-71.1914 88.1836-71.1914L83.7891-71.1914C81.9336-71.1914 80.7129-70.0195 80.7129-68.1641Z"/>
  </g>
  <g id="Light-S" transform="matrix(1 0 0 1 1098.5 696)">
   <path d="M43.7163-1.8379L65.5464-1.8379L65.5464-29.9522C65.5464-31.6108 64.4468-32.7105 62.7881-32.7105L46.4746-32.7105C44.8159-32.7105 43.7163-31.6108 43.7163-29.9522ZM28.7446 1.58301L80.3765 1.58301C85.6319 1.58301 88.6377-1.38574 88.6377-6.54346L88.6377-48.7749L83.2261-52.4937L83.2261-7.91114C83.2261-5.22267 81.8472-3.84376 79.2261-3.84376L29.8613-3.84376C27.2554-3.84376 25.9102-5.22267 25.9102-7.91114L25.9102-52.4634L20.4497-48.7749L20.4497-6.54346C20.4497-1.37061 23.4556 1.58301 28.7446 1.58301ZM9.76562-40.9531C9.76562-39.5703 10.8638-38.27 12.6812-38.27C13.6143-38.27 14.3672-38.772 15.0493-39.3379L53.2349-71.4165C54.1558-72.1909 55.1777-72.2178 56.1221-71.4165L94.2471-39.3379C94.9629-38.772 95.7158-38.27 96.6489-38.27C98.2456-38.27 99.4971-39.2671 99.4971-40.852C99.4971-41.8828 99.1822-42.5649 98.4209-43.1948L59.0576-76.3096C56.3482-78.6065 53.0728-78.6065 50.333-76.3096L10.8755-43.1948C10.1143-42.5649 9.76562-41.748 9.76562-40.9531ZM79.7744-57.1582L88.6377-49.6489L88.6377-67.3013C88.6377-68.8237 87.6289-69.7988 86.1402-69.7988L82.3057-69.7988C80.7832-69.7988 79.7744-68.8237 79.7744-67.3013Z"/>
  </g>
  <g id="Thin-S" transform="matrix(1 0 0 1 804.093 696)">
   <path d="M41.7344-0.716812L62.9239-0.716812L62.9239-29.5918C62.9239-30.9902 61.9844-31.9297 60.586-31.9297L44.0723-31.9297C42.6739-31.9297 41.7344-30.9902 41.7344-29.5918ZM26.7227 1.22266L77.9942 1.22266C82.709 1.22266 85.2344-1.3457 85.2344-5.9629L85.2344-47.9942L81.9649-50.4317L81.9649-6.75002C81.9649-3.54104 80.5059-2.08206 77.3242-2.08206L27.3789-2.08206C24.2325-2.08206 22.7872-3.54104 22.7872-6.75002L22.7872-50.3614L19.4688-47.9942L19.4688-5.9629C19.4688-1.31055 21.9942 1.22266 26.7227 1.22266ZM9.76562-41.1934C9.76562-40.3711 10.4434-39.6113 11.5-39.6113C12.0528-39.6113 12.4453-39.873 12.8672-40.2187L50.7325-72.0371C51.7735-72.9316 52.8555-73.0586 54.0801-72.0371L91.8047-40.2187C92.2403-39.873 92.6329-39.6113 93.1856-39.6113C94.1817-39.6113 94.8926-40.248 94.8926-41.1523C94.8926-41.8027 94.6778-42.2246 94.1368-42.6543L56.0547-74.7481C53.7657-76.7246 51.1309-76.7246 48.7715-74.7481L10.5352-42.6543C9.99414-42.2246 9.76562-41.748 9.76562-41.1934ZM78.5332-54.3555L85.2344-48.668L85.2344-66.1602C85.2344-67.2422 84.5059-67.9571 83.4375-67.9571L80.3438-67.9571C79.2617-67.9571 78.5332-67.2422 78.5332-66.1602Z"/>
  </g>
  <g id="Ultralight-S" transform="matrix(1 0 0 1 508.561 696)">
   <path d="M40.7193-0.142598L61.5806-0.142598L61.5806-29.4072C61.5806-30.6724 60.7232-31.5298 59.458-31.5298L42.8418-31.5298C41.5767-31.5298 40.7193-30.6724 40.7193-29.4072ZM25.687 1.03809L76.774 1.03809C81.212 1.03809 83.4913-1.3252 83.4913-5.66554L83.4913-47.5943L81.3189-49.3755L81.3189-6.15529C81.3189-2.67972 79.8189-1.17972 76.3501-1.17972L26.1075-1.17972C22.6841-1.17972 21.1876-2.67972 21.1876-6.15529L21.1876-49.2847L18.9663-47.5943L18.9663-5.66554C18.9663-1.27979 21.2456 1.03809 25.687 1.03809ZM9.76562-41.3164C9.76562-40.7812 10.228-40.2983 10.895-40.2983C11.253-40.2983 11.461-40.437 11.7496-40.6699L49.4507-72.355C50.5533-73.311 51.6661-73.4892 53.0342-72.355L90.5538-40.6699C90.8458-40.437 91.0538-40.2983 91.4117-40.2983C92.1002-40.2983 92.5343-40.7505 92.5343-41.3061C92.5343-41.7617 92.3707-42.0503 91.9425-42.3775L54.5167-73.9483C52.4429-75.7608 50.1363-75.7608 47.9717-73.9483L10.3608-42.3775C9.93262-42.0503 9.76562-41.748 9.76562-41.3164ZM77.8975-52.92L83.4913-48.1655L83.4913-65.5757C83.4913-66.4322 82.9063-67.0137 82.0533-67.0137L79.3389-67.0137C78.4824-67.0137 77.8975-66.4322 77.8975-65.5757Z"/>
  </g>
 </g>
</svg>
