<?xml version="1.0" encoding="UTF-8"?>
<!--Generator: Apple Native CoreSVG 175.5-->
<!DOCTYPE svg
PUBLIC "-//W3C//DTD SVG 1.1//EN"
       "http://www.w3.org/Graphics/SVG/1.1/DTD/svg11.dtd">
<svg version="1.1" xmlns="http://www.w3.org/2000/svg" xmlns:xlink="http://www.w3.org/1999/xlink" width="3300" height="2200">
 <!--glyph: "uni10044D.medium", point size: 100.0, font version: "18.0d11e1", template writer version: "90"-->
 <g id="Notes">
  <rect height="2200" id="artboard" style="fill:white;opacity:1" width="3300" x="0" y="0"/>
  <line style="fill:none;stroke:black;opacity:1;stroke-width:0.5;" x1="263" x2="3036" y1="292" y2="292"/>
  <text style="stroke:none;fill:black;font-family:sans-serif;font-size:13;font-weight:bold;" transform="matrix(1 0 0 1 263 322)">Weight/Scale Variations</text>
  <text style="stroke:none;fill:black;font-family:sans-serif;font-size:13;text-anchor:middle;" transform="matrix(1 0 0 1 559.711 322)">Ultralight</text>
  <text style="stroke:none;fill:black;font-family:sans-serif;font-size:13;text-anchor:middle;" transform="matrix(1 0 0 1 856.422 322)">Thin</text>
  <text style="stroke:none;fill:black;font-family:sans-serif;font-size:13;text-anchor:middle;" transform="matrix(1 0 0 1 1153.13 322)">Light</text>
  <text style="stroke:none;fill:black;font-family:sans-serif;font-size:13;text-anchor:middle;" transform="matrix(1 0 0 1 1449.84 322)">Regular</text>
  <text style="stroke:none;fill:black;font-family:sans-serif;font-size:13;text-anchor:middle;" transform="matrix(1 0 0 1 1746.56 322)">Medium</text>
  <text style="stroke:none;fill:black;font-family:sans-serif;font-size:13;text-anchor:middle;" transform="matrix(1 0 0 1 2043.27 322)">Semibold</text>
  <text style="stroke:none;fill:black;font-family:sans-serif;font-size:13;text-anchor:middle;" transform="matrix(1 0 0 1 2339.98 322)">Bold</text>
  <text style="stroke:none;fill:black;font-family:sans-serif;font-size:13;text-anchor:middle;" transform="matrix(1 0 0 1 2636.69 322)">Heavy</text>
  <text style="stroke:none;fill:black;font-family:sans-serif;font-size:13;text-anchor:middle;" transform="matrix(1 0 0 1 2933.4 322)">Black</text>
  <line style="fill:none;stroke:black;opacity:1;stroke-width:0.5;" x1="263" x2="3036" y1="1903" y2="1903"/>
  <g transform="matrix(1 0 0 1 263 1933)">
   <path d="M9.24805 0.830078C13.5547 0.830078 17.1387-2.74414 17.1387-7.05078C17.1387-11.3574 13.5449-14.9316 9.23828-14.9316C4.94141-14.9316 1.36719-11.3574 1.36719-7.05078C1.36719-2.74414 4.95117 0.830078 9.24805 0.830078ZM9.24805-0.654297C5.70312-0.654297 2.87109-3.49609 2.87109-7.05078C2.87109-10.6055 5.69336-13.4473 9.23828-13.4473C12.793-13.4473 15.6445-10.6055 15.6445-7.05078C15.6445-3.49609 12.8027-0.654297 9.24805-0.654297ZM5.6543-7.05078C5.6543-6.62109 5.95703-6.32812 6.40625-6.32812L8.50586-6.32812L8.50586-4.20898C8.50586-3.76953 8.79883-3.4668 9.22852-3.4668C9.67773-3.4668 9.9707-3.76953 9.9707-4.20898L9.9707-6.32812L12.0898-6.32812C12.5293-6.32812 12.832-6.62109 12.832-7.05078C12.832-7.49023 12.5293-7.79297 12.0898-7.79297L9.9707-7.79297L9.9707-9.90234C9.9707-10.3516 9.67773-10.6543 9.22852-10.6543C8.79883-10.6543 8.50586-10.3516 8.50586-9.90234L8.50586-7.79297L6.40625-7.79297C5.95703-7.79297 5.6543-7.49023 5.6543-7.05078Z"/>
  </g>
  <g transform="matrix(1 0 0 1 281.867 1933)">
   <path d="M11.709 2.91016C17.1582 2.91016 21.6699-1.61133 21.6699-7.05078C21.6699-12.5 17.1484-17.0117 11.6992-17.0117C6.25977-17.0117 1.74805-12.5 1.74805-7.05078C1.74805-1.61133 6.26953 2.91016 11.709 2.91016ZM11.709 1.25C7.09961 1.25 3.41797-2.44141 3.41797-7.05078C3.41797-11.6602 7.08984-15.3516 11.6992-15.3516C16.3086-15.3516 20.0098-11.6602 20.0098-7.05078C20.0098-2.44141 16.3184 1.25 11.709 1.25ZM7.17773-7.05078C7.17773-6.57227 7.50977-6.25 8.00781-6.25L10.8789-6.25L10.8789-3.36914C10.8789-2.88086 11.2109-2.53906 11.6895-2.53906C12.1777-2.53906 12.5195-2.87109 12.5195-3.36914L12.5195-6.25L15.4004-6.25C15.8887-6.25 16.2305-6.57227 16.2305-7.05078C16.2305-7.53906 15.8887-7.88086 15.4004-7.88086L12.5195-7.88086L12.5195-10.752C12.5195-11.25 12.1777-11.5918 11.6895-11.5918C11.2109-11.5918 10.8789-11.25 10.8789-10.752L10.8789-7.88086L8.00781-7.88086C7.50977-7.88086 7.17773-7.53906 7.17773-7.05078Z"/>
  </g>
  <g transform="matrix(1 0 0 1 305.646 1933)">
   <path d="M14.9707 5.66406C21.9336 5.66406 27.6953-0.0976562 27.6953-7.05078C27.6953-14.0137 21.9238-19.7754 14.9609-19.7754C8.00781-19.7754 2.25586-14.0137 2.25586-7.05078C2.25586-0.0976562 8.01758 5.66406 14.9707 5.66406ZM14.9707 3.84766C8.93555 3.84766 4.08203-1.01562 4.08203-7.05078C4.08203-13.0957 8.92578-17.9492 14.9609-17.9492C21.0059-17.9492 25.8691-13.0957 25.8691-7.05078C25.8691-1.01562 21.0156 3.84766 14.9707 3.84766ZM9.19922-7.05078C9.19922-6.5332 9.57031-6.17188 10.1172-6.17188L14.0625-6.17188L14.0625-2.2168C14.0625-1.67969 14.4336-1.29883 14.9512-1.29883C15.4883-1.29883 15.8594-1.66992 15.8594-2.2168L15.8594-6.17188L19.8145-6.17188C20.3516-6.17188 20.7324-6.5332 20.7324-7.05078C20.7324-7.59766 20.3613-7.96875 19.8145-7.96875L15.8594-7.96875L15.8594-11.9141C15.8594-12.4609 15.4883-12.8418 14.9512-12.8418C14.4336-12.8418 14.0625-12.4609 14.0625-11.9141L14.0625-7.96875L10.1172-7.96875C9.57031-7.96875 9.19922-7.59766 9.19922-7.05078Z"/>
  </g>
  <text style="stroke:none;fill:black;font-family:sans-serif;font-size:13;font-weight:bold;" transform="matrix(1 0 0 1 263 1953)">Design Variations</text>
  <text style="stroke:none;fill:black;font-family:sans-serif;font-size:13;" transform="matrix(1 0 0 1 263 1971)">Symbols are supported in up to nine weights and three scales.</text>
  <text style="stroke:none;fill:black;font-family:sans-serif;font-size:13;" transform="matrix(1 0 0 1 263 1989)">For optimal layout with text and other symbols, vertically align</text>
  <text style="stroke:none;fill:black;font-family:sans-serif;font-size:13;" transform="matrix(1 0 0 1 263 2007)">symbols with the adjacent text.</text>
  <line style="fill:none;stroke:#00AEEF;stroke-width:0.5;opacity:1.0;" x1="776" x2="776" y1="1919" y2="1933"/>
  <g transform="matrix(1 0 0 1 776 1933)">
   <path d="M3.31055 0.15625C3.82812 0.15625 4.08203-0.0390625 4.26758-0.585938L5.52734-4.0332L11.2891-4.0332L12.5488-0.585938C12.7344-0.0390625 12.9883 0.15625 13.4961 0.15625C14.0137 0.15625 14.3457-0.15625 14.3457-0.644531C14.3457-0.810547 14.3164-0.966797 14.2383-1.17188L9.6582-13.3691C9.43359-13.9648 9.0332-14.2676 8.4082-14.2676C7.80273-14.2676 7.39258-13.9746 7.17773-13.3789L2.59766-1.16211C2.51953-0.957031 2.49023-0.800781 2.49023-0.634766C2.49023-0.146484 2.80273 0.15625 3.31055 0.15625ZM6.00586-5.51758L8.37891-12.0898L8.42773-12.0898L10.8008-5.51758Z"/>
  </g>
  <line style="fill:none;stroke:#00AEEF;stroke-width:0.5;opacity:1.0;" x1="793.197" x2="793.197" y1="1919" y2="1933"/>
  <text style="stroke:none;fill:black;font-family:sans-serif;font-size:13;font-weight:bold;" transform="matrix(1 0 0 1 776 1953)">Margins</text>
  <text style="stroke:none;fill:black;font-family:sans-serif;font-size:13;" transform="matrix(1 0 0 1 776 1971)">Leading and trailing margins on the left and right side of each symbol</text>
  <text style="stroke:none;fill:black;font-family:sans-serif;font-size:13;" transform="matrix(1 0 0 1 776 1989)">can be adjusted by modifying the x-location of the margin guidelines.</text>
  <text style="stroke:none;fill:black;font-family:sans-serif;font-size:13;" transform="matrix(1 0 0 1 776 2007)">Modifications are automatically applied proportionally to all</text>
  <text style="stroke:none;fill:black;font-family:sans-serif;font-size:13;" transform="matrix(1 0 0 1 776 2025)">scales and weights.</text>
  <g transform="matrix(1 0 0 1 1289 1933)">
   <path d="M2.8418 1.86523L4.54102 3.57422C5.40039 4.44336 6.38672 4.38477 7.31445 3.35938L18.0078-8.42773L17.041-9.4043L6.42578 2.27539C6.07422 2.67578 5.74219 2.77344 5.27344 2.30469L4.10156 1.14258C3.63281 0.683594 3.74023 0.341797 4.14062-0.0195312L15.6152-10.8203L14.6387-11.7871L3.04688-0.898438C2.06055 0.0195312 1.98242 0.996094 2.8418 1.86523ZM9.25781-16.3281C8.83789-15.918 8.80859-15.3418 9.04297-14.9512C9.27734-14.5898 9.73633-14.3555 10.3809-14.5215C11.8457-14.8633 13.3691-14.9219 14.7949-13.9844L14.209-12.5293C13.8672-11.6992 14.043-11.1133 14.5801-10.5664L16.875-8.25195C17.3633-7.76367 17.7734-7.74414 18.3398-7.8418L19.4043-8.03711L20.0684-7.36328L20.0293-6.80664C19.9902-6.30859 20.1172-5.92773 20.6055-5.44922L21.3672-4.70703C21.8457-4.22852 22.4609-4.19922 22.9297-4.66797L25.8398-7.58789C26.3086-8.05664 26.2891-8.65234 25.8105-9.13086L25.0391-9.89258C24.5605-10.3711 24.1895-10.5273 23.7109-10.4883L23.1348-10.4395L22.4902-11.0742L22.7344-12.1973C22.8613-12.7637 22.7051-13.2031 22.1191-13.7891L19.9219-15.9766C16.582-19.2969 12.1484-19.2188 9.25781-16.3281ZM10.752-15.957C13.1836-17.7344 16.4746-17.4316 18.7012-15.2051L21.1328-12.793C21.3672-12.5586 21.4062-12.373 21.3379-12.0312L21.0156-10.5469L22.5195-9.0625L23.5059-9.12109C23.7598-9.13086 23.8379-9.11133 24.0332-8.91602L24.6094-8.33984L22.168-5.89844L21.5918-6.47461C21.3965-6.66992 21.3672-6.74805 21.377-7.01172L21.4453-7.98828L19.9512-9.47266L18.4277-9.21875C18.1055-9.15039 17.959-9.17969 17.7148-9.41406L15.7129-11.416C15.459-11.6504 15.4297-11.8164 15.5859-12.1875L16.4648-14.2773C14.9023-15.7324 12.8711-16.3574 10.8398-15.7617C10.6836-15.7227 10.625-15.8496 10.752-15.957Z"/>
  </g>
  <text style="stroke:none;fill:black;font-family:sans-serif;font-size:13;font-weight:bold;" transform="matrix(1 0 0 1 1289 1953)">Exporting</text>
  <text style="stroke:none;fill:black;font-family:sans-serif;font-size:13;" transform="matrix(1 0 0 1 1289 1971)">Symbols should be outlined when exporting to ensure the</text>
  <text style="stroke:none;fill:black;font-family:sans-serif;font-size:13;" transform="matrix(1 0 0 1 1289 1989)">design is preserved when submitting to Xcode.</text>
  <text id="template-version" style="stroke:none;fill:black;font-family:sans-serif;font-size:13;text-anchor:end;" transform="matrix(1 0 0 1 3036 1933)">Template v.4.0</text>
  <text style="stroke:none;fill:black;font-family:sans-serif;font-size:13;text-anchor:end;" transform="matrix(1 0 0 1 3036 1951)">Requires Xcode 14 or greater</text>
  <text id="descriptive-name" style="stroke:none;fill:black;font-family:sans-serif;font-size:13;text-anchor:end;" transform="matrix(1 0 0 1 3036 1969)">Generated from plus.app</text>
  <text style="stroke:none;fill:black;font-family:sans-serif;font-size:13;text-anchor:end;" transform="matrix(1 0 0 1 3036 1987)">Typeset at 100 points</text>
  <text style="stroke:none;fill:black;font-family:sans-serif;font-size:13;" transform="matrix(1 0 0 1 263 726)">Small</text>
  <text style="stroke:none;fill:black;font-family:sans-serif;font-size:13;" transform="matrix(1 0 0 1 263 1156)">Medium</text>
  <text style="stroke:none;fill:black;font-family:sans-serif;font-size:13;" transform="matrix(1 0 0 1 263 1586)">Large</text>
 </g>
 <g id="Guides">
  <g id="H-reference" style="fill:#27AAE1;stroke:none;" transform="matrix(1 0 0 1 339 696)">
   <path d="M0.993654 0L3.63775 0L29.3281-67.1323L30.0303-67.1323L30.0303-70.459L28.1226-70.459ZM11.6885-24.4799L46.9815-24.4799L46.2315-26.7285L12.4385-26.7285ZM55.1196 0L57.7637 0L30.6382-70.459L29.4326-70.459L29.4326-67.1323Z"/>
  </g>
  <line id="Baseline-S" style="fill:none;stroke:#27AAE1;opacity:1;stroke-width:0.5;" x1="263" x2="3036" y1="696" y2="696"/>
  <line id="Capline-S" style="fill:none;stroke:#27AAE1;opacity:1;stroke-width:0.5;" x1="263" x2="3036" y1="625.541" y2="625.541"/>
  <g id="H-reference" style="fill:#27AAE1;stroke:none;" transform="matrix(1 0 0 1 339 1126)">
   <path d="M0.993654 0L3.63775 0L29.3281-67.1323L30.0303-67.1323L30.0303-70.459L28.1226-70.459ZM11.6885-24.4799L46.9815-24.4799L46.2315-26.7285L12.4385-26.7285ZM55.1196 0L57.7637 0L30.6382-70.459L29.4326-70.459L29.4326-67.1323Z"/>
  </g>
  <line id="Baseline-M" style="fill:none;stroke:#27AAE1;opacity:1;stroke-width:0.5;" x1="263" x2="3036" y1="1126" y2="1126"/>
  <line id="Capline-M" style="fill:none;stroke:#27AAE1;opacity:1;stroke-width:0.5;" x1="263" x2="3036" y1="1055.54" y2="1055.54"/>
  <g id="H-reference" style="fill:#27AAE1;stroke:none;" transform="matrix(1 0 0 1 339 1556)">
   <path d="M0.993654 0L3.63775 0L29.3281-67.1323L30.0303-67.1323L30.0303-70.459L28.1226-70.459ZM11.6885-24.4799L46.9815-24.4799L46.2315-26.7285L12.4385-26.7285ZM55.1196 0L57.7637 0L30.6382-70.459L29.4326-70.459L29.4326-67.1323Z"/>
  </g>
  <line id="Baseline-L" style="fill:none;stroke:#27AAE1;opacity:1;stroke-width:0.5;" x1="263" x2="3036" y1="1556" y2="1556"/>
  <line id="Capline-L" style="fill:none;stroke:#27AAE1;opacity:1;stroke-width:0.5;" x1="263" x2="3036" y1="1485.54" y2="1485.54"/>
  <line id="left-margin-Regular-M" style="fill:none;stroke:#00AEEF;stroke-width:0.5;opacity:1.0;" x1="1392.38" x2="1392.38" y1="1030.79" y2="1150.12"/>
  <line id="right-margin-Regular-M" style="fill:none;stroke:#00AEEF;stroke-width:0.5;opacity:1.0;" x1="1507.31" x2="1507.31" y1="1030.79" y2="1150.12"/>
 </g>
 <g id="Symbols">
  <g id="Black-L" transform="matrix(1 0 0 1 2856.24 1556)">
   <path d="M129.587-87.4502C122.841-94.116 114.059-96.1819 100.284-96.1819L54.0263-96.1819C40.2639-96.1819 31.4218-94.1148 24.7364-87.449C18.0707-80.7636 16.084-72.1408 16.084-58.2603L16.084-12.1486C16.084 1.76703 18.0695 10.4691 24.7352 17.074C31.4802 23.7606 40.2407 25.8057 54.0383 25.8057L100.284 25.8057C114.059 25.8057 122.9 23.7606 129.587 17.074C136.251 10.3886 138.238 1.76703 138.238-12.1486L138.238-58.2275C138.238-72.1432 136.251-80.8244 129.587-87.4502ZM118.257-59.9944L118.257-10.3818C118.257-3.6992 117.363-0.0842419 114.925 2.41294C112.427 4.85292 108.674 5.82468 102.051 5.82468L52.2715 5.82468C45.6485 5.82468 41.8935 4.85172 39.3963 2.41294C36.9575-0.0842419 36.065-3.6992 36.065-10.3818L36.065-59.9616C36.065-66.6746 36.9575-70.2931 39.3951-72.7903C41.8923-75.2303 45.6509-76.2009 52.3042-76.2009L102.051-76.2009C108.674-76.2009 112.427-75.2279 114.925-72.7891C117.365-70.2919 118.257-66.677 118.257-59.9944ZM48.2985-35.2697C48.2985-30.6634 51.6425-27.2234 56.1748-27.2234L69.0927-27.2234L69.0927-14.2847C69.0927-9.77316 72.5327-6.43037 77.139-6.43037C81.7686-6.43037 85.2294-9.77196 85.2294-14.2847L85.2294-27.2234L98.1669-27.2234C102.68-27.2234 106.002-30.6634 106.002-35.2697C106.002-39.8992 102.681-43.36 98.1669-43.36L85.2294-43.36L85.2294-56.2779C85.2294-60.8115 81.7686-64.1531 77.139-64.1531C72.5327-64.1531 69.0927-60.8103 69.0927-56.2779L69.0927-43.36L56.1748-43.36C51.6413-43.36 48.2985-39.8992 48.2985-35.2697Z"/>
  </g>
  <g id="Heavy-L" transform="matrix(1 0 0 1 2560.32 1556)">
   <path d="M128.336-86.9471C121.691-93.5118 112.907-95.3507 99.812-95.3507L52.8753-95.3507C39.8422-95.3507 31.002-93.5062 24.4127-86.9415C17.848-80.3522 16.084-71.7175 16.084-58.5895L16.084-11.8641C16.084 1.36142 17.8424 10.0709 24.4071 16.5798C31.0466 23.1747 39.8007 24.9833 52.9314 24.9833L99.812 24.9833C112.907 24.9833 121.741 23.1747 128.336 16.5798C134.895 9.99051 136.659 1.36142 136.659-11.8641L136.659-58.5032C136.659-71.7288 134.895-80.4081 128.336-86.9471ZM119.159-60.2612L119.159-10.1061C119.159-3.40838 118.259 0.933777 115.494 3.74304C112.685 6.5133 108.218 7.48292 101.57 7.48292L51.1734 7.48292C44.5259 7.48292 40.0531 6.50768 37.2438 3.74304C34.4792 0.933777 33.5844-3.40838 33.5844-10.1061L33.5844-60.1749C33.5844-66.9477 34.4792-71.3067 37.2382-74.116C40.0475-76.8862 44.5371-77.8503 51.2597-77.8503L101.57-77.8503C108.218-77.8503 112.685-76.875 115.494-74.1104C118.264-71.3011 119.159-66.959 119.159-60.2612ZM47.4586-35.2697C47.4586-31.0798 50.5031-27.9763 54.6697-27.9763L69.0425-27.9763L69.0425-13.5733C69.0425-9.43686 72.1461-6.39799 76.3359-6.39799C80.5672-6.39799 83.7009-9.43125 83.7009-13.5733L83.7009-27.9763L98.0983-27.9763C102.24-27.9763 105.249-31.0798 105.249-35.2697C105.249-39.501 102.246-42.6347 98.0983-42.6347L83.7009-42.6347L83.7009-57.0075C83.7009-61.1798 80.5672-64.213 76.3359-64.213C72.1461-64.213 69.0425-61.1741 69.0425-57.0075L69.0425-42.6347L54.6697-42.6347C50.4975-42.6347 47.4586-39.501 47.4586-35.2697Z"/>
  </g>
  <g id="Bold-L" transform="matrix(1 0 0 1 2264.64 1556)">
   <path d="M126.672-86.28C120.21-92.6621 111.537-94.2763 99.1237-94.2763L51.4164-94.2763C39.1483-94.2763 30.4199-92.6489 24.0131-86.2668C17.631-79.8599 16.084-71.3217 16.084-58.9819L16.084-11.5405C16.084 0.996011 17.6178 9.60147 23.9999 15.9279C30.4491 22.348 39.0838 23.9242 51.5487 23.9242L99.1237 23.9242C111.537 23.9242 120.252 22.348 126.672 15.9279C133.041 9.52105 134.588 0.996011 134.588-11.5405L134.588-58.8116C134.588-71.3481 133.041-79.9156 126.672-86.28ZM120.147-60.5544L120.147-9.79771C120.147-2.96529 119.201 2.17161 116.067 5.33534C112.903 8.48309 107.656 9.48244 100.866 9.48244L49.8059 9.48244C43.0159 9.48244 37.7561 8.46986 34.5924 5.33534C31.4579 2.17161 30.5257-2.96529 30.5257-9.79771L30.5257-60.3841C30.5257-67.3604 31.4579-72.5369 34.5792-75.7007C37.7429-78.8484 43.0424-79.8345 49.9762-79.8345L100.866-79.8345C107.656-79.8345 112.903-78.822 116.067-75.6874C119.214-72.5237 120.147-67.3868 120.147-60.5544ZM46.4361-35.2697C46.4361-31.6394 49.0893-28.9658 52.7504-28.9658L68.981-28.9658L68.981-12.6971C68.981-9.07404 71.6547-6.43404 75.285-6.43404C78.9797-6.43404 81.6913-9.06081 81.6913-12.6971L81.6913-28.9658L97.9467-28.9658C101.583-28.9658 104.185-31.6394 104.185-35.2697C104.185-38.9644 101.596-41.6761 97.9467-41.6761L81.6913-41.6761L81.6913-57.9067C81.6913-61.581 78.9797-64.2078 75.285-64.2078C71.6547-64.2078 68.981-61.5678 68.981-57.9067L68.981-41.6761L52.7504-41.6761C49.0761-41.6761 46.4361-38.9644 46.4361-35.2697Z"/>
  </g>
  <g id="Semibold-L" transform="matrix(1 0 0 1 1968.64 1556)">
   <path d="M125.525-85.8201C119.189-92.0763 110.593-93.5356 98.6492-93.5356L50.4106-93.5356C38.6699-93.5356 30.0187-92.0578 23.7376-85.8016C17.4814-79.5205 16.084-71.0487 16.084-59.2524L16.084-11.3174C16.084 0.744102 17.4629 9.27783 23.7191 15.4785C30.0373 21.778 38.5895 23.194 50.5954 23.194L98.6492 23.194C110.593 23.194 119.226 21.778 125.525 15.4785C131.763 9.19741 133.161 0.744102 133.161-11.3174L133.161-59.0242C133.161-71.0857 131.763-79.5761 125.525-85.8201ZM120.827-60.7565L120.827-9.58511C120.827-2.65982 119.851 3.02497 116.462 6.43305C113.053 9.84105 107.27 10.8609 100.381 10.8609L48.8631 10.8609C41.9749 10.8609 36.1726 9.82257 32.7645 6.43305C29.375 3.02497 28.4171-2.65982 28.4171-9.58511L28.4171-60.5283C28.4171-67.6448 29.375-73.3851 32.7461-76.7931C36.1542-80.2011 42.0119-81.2025 49.0913-81.2025L100.381-81.2025C107.27-81.2025 113.053-80.1642 116.462-76.7747C119.87-73.3666 120.827-67.6818 120.827-60.7565ZM45.7312-35.2697C45.7312-32.0252 48.1147-29.6479 51.4272-29.6479L68.9386-29.6479L68.9386-12.0931C68.9386-8.82392 71.3159-6.45889 74.5604-6.45889C77.8853-6.45889 80.3059-8.80544 80.3059-12.0931L80.3059-29.6479L97.8422-29.6479C101.13-29.6479 103.452-32.0252 103.452-35.2697C103.452-38.5946 101.148-41.0152 97.8422-41.0152L80.3059-41.0152L80.3059-58.5266C80.3059-61.8577 77.8853-64.2042 74.5604-64.2042C71.3159-64.2042 68.9386-61.8392 68.9386-58.5266L68.9386-41.0152L51.4272-41.0152C48.0962-41.0152 45.7312-38.5946 45.7312-35.2697Z"/>
  </g>
  <g id="Medium-L" transform="matrix(1 0 0 1 1672.47 1556)">
   <path d="M124.656-85.4713C118.415-91.6321 109.877-92.974 98.2894-92.974L49.648-92.974C38.3072-92.974 29.7144-91.6096 23.5287-85.4489C17.368-79.2632 16.084-70.8418 16.084-59.4575L16.084-11.1482C16.084 0.553095 17.3455 9.03243 23.5063 15.1377C29.7249 21.3459 38.2148 22.6404 49.8726 22.6404L98.2894 22.6404C109.877 22.6404 118.448 21.3459 124.656 15.1377C130.794 8.95201 132.078 0.553095 132.078-11.1482L132.078-59.1854C132.078-70.8867 130.794-79.3186 124.656-85.4713ZM121.344-60.9097L121.344-9.42391C121.344-2.42821 120.344 3.67202 116.761 7.26539C113.168 10.8707 106.976 11.9061 100.014 11.9061L48.1483 11.9061C41.1856 11.9061 34.972 10.8483 31.3786 7.26539C27.7957 3.67202 26.8183-2.42821 26.8183-9.42391L26.8183-60.6377C26.8183-67.8605 27.7957-74.0281 31.3561-77.6215C34.9495-81.2268 41.2305-82.2397 48.4204-82.2397L100.014-82.2397C106.976-82.2397 113.168-81.1819 116.761-77.599C120.366-74.0057 121.344-67.9054 121.344-60.9097ZM45.1967-35.2697C45.1967-32.3177 47.3756-30.1651 50.424-30.1651L68.9065-30.1651L68.9065-11.6352C68.9065-8.63427 71.0591-6.47774 74.0111-6.47774C77.0555-6.47774 79.2555-8.6118 79.2555-11.6352L79.2555-30.1651L97.763-30.1651C100.786-30.1651 102.895-32.3177 102.895-35.2697C102.895-38.3141 100.809-40.5141 97.763-40.5141L79.2555-40.5141L79.2555-58.9966C79.2555-62.0674 77.0555-64.2015 74.0111-64.2015C71.0591-64.2015 68.9065-62.045 68.9065-58.9966L68.9065-40.5141L50.424-40.5141C47.3532-40.5141 45.1967-38.3141 45.1967-35.2697Z"/>
  </g>
  <g id="Regular-L" transform="matrix(1 0 0 1 1376.47 1556)">
   <path d="M123.521-85.0165C117.405-91.0527 108.943-92.2415 97.82-92.2415L48.6533-92.2415C37.834-92.2415 29.3176-91.025 23.2563-84.9888C17.2201-78.9275 16.084-70.5719 16.084-59.725L16.084-10.9276C16.084 0.303954 17.1924 8.71234 23.2286 14.6932C29.3176 20.7822 37.726 21.9183 48.9298 21.9183L97.82 21.9183C108.943 21.9183 117.432 20.7822 123.521 14.6932C129.53 8.63192 130.666 0.303954 130.666-10.9276L130.666-59.3957C130.666-70.6272 129.53-78.9828 123.521-85.0165ZM122.017-61.1096L122.017-9.21365C122.017-2.1261 120.986 4.516 117.151 8.35105C113.316 12.2138 106.594 13.2694 99.534 13.2694L47.2159 13.2694C40.156 13.2694 33.4058 12.1861 29.5708 8.35105C25.7357 4.516 24.7328-2.1261 24.7328-9.21365L24.7328-60.7803C24.7328-68.1418 25.7357-74.8669 29.5431-78.702C33.3782-82.5647 40.2113-83.5927 47.5452-83.5927L99.534-83.5927C106.594-83.5927 113.316-82.5093 117.151-78.6743C121.014-74.8392 122.017-68.1972 122.017-61.1096ZM44.4995-35.2697C44.4995-32.6992 46.4117-30.8397 49.1154-30.8397L68.8646-30.8397L68.8646-11.0378C68.8646-8.38689 70.724-6.50232 73.2945-6.50232C75.9731-6.50232 77.8853-8.35924 77.8853-11.0378L77.8853-30.8397L97.6596-30.8397C100.338-30.8397 102.17-32.6992 102.17-35.2697C102.17-37.9483 100.366-39.8605 97.6596-39.8605L77.8853-39.8605L77.8853-59.6097C77.8853-62.341 75.9731-64.1979 73.2945-64.1979C70.724-64.1979 68.8646-62.3134 68.8646-59.6097L68.8646-39.8605L49.1154-39.8605C46.3841-39.8605 44.4995-37.9483 44.4995-35.2697Z"/>
  </g>
  <g id="Light-L" transform="matrix(1 0 0 1 1080.85 1556)">
   <path d="M121.632-84.2722C116.011-89.8121 108.371-91.2109 96.6749-91.2109L47.4318-91.2109C36.25-91.2109 28.516-89.7654 22.9891-84.2254C17.4491-78.6985 16.084-71.1254 16.084-59.8968L16.084-10.8894C16.084 0.933768 17.4023 8.54058 22.9423 13.9871C28.516 19.5607 36.1228 20.9258 47.8992 20.9258L96.6749 20.9258C108.371 20.9258 116.058 19.5607 121.632 13.9871C127.125 8.46016 128.49 0.933768 128.49-10.8894L128.49-59.3957C128.49-71.2188 127.125-78.792 121.632-84.2722ZM121.864-61.0714L121.864-9.21365C121.864-1.28635 120.567 5.22215 116.693 9.09537C112.82 13.0153 106.231 14.3 98.3507 14.3L46.2235 14.3C38.3429 14.3 31.7073 12.9686 27.834 9.09537C23.9608 5.22215 22.7098-1.28635 22.7098-9.21365L22.7098-60.5703C22.7098-68.9052 23.9608-75.554 27.7873-79.4272C31.6605-83.3472 38.4364-84.5851 46.7246-84.5851L98.3507-84.5851C106.231-84.5851 112.82-83.2537 116.693-79.3805C120.613-75.5072 121.864-68.9987 121.864-61.0714ZM43.9078-35.2697C43.9078-33.3672 45.4193-31.8894 47.4359-31.8894L68.8264-31.8894L68.8264-10.4652C68.8264-8.48232 70.3041-7.01762 72.2067-7.01762C74.2363-7.01762 75.7478-8.43558 75.7478-10.4652L75.7478-31.8894L97.1252-31.8894C99.1549-31.8894 100.586-33.3672 100.586-35.2697C100.586-37.2994 99.2016-38.8108 97.1252-38.8108L75.7478-38.8108L75.7478-60.2013C75.7478-62.2647 74.2363-63.6826 72.2067-63.6826C70.3041-63.6826 68.8264-62.2179 68.8264-60.2013L68.8264-38.8108L47.4359-38.8108C45.3725-38.8108 43.9078-37.2994 43.9078-35.2697Z"/>
  </g>
  <g id="Thin-L" transform="matrix(1 0 0 1 785.574 1556)">
   <path d="M119.133-83.2877C114.169-88.1714 107.614-89.8479 95.1604-89.8479L45.8163-89.8479C34.1549-89.8479 27.4558-88.0994 22.6357-83.2157C17.752-78.3956 16.084-71.8574 16.084-60.124L16.084-10.8389C16.084 1.76675 17.68 8.3134 22.5637 13.0531C27.4558 17.9453 34.0025 19.6133 46.5362 19.6133L95.1604 19.6133C107.614 19.6133 114.241 17.9453 119.133 13.0531C123.945 8.23298 125.613 1.76675 125.613-10.8389L125.613-59.3957C125.613-72.0013 123.945-78.5396 119.133-83.2877ZM121.662-61.0209L121.662-9.21365C121.662-0.175707 120.011 6.1561 116.088 10.0798C112.164 14.0755 105.752 15.6631 96.7857 15.6631L44.9109 15.6631C35.9449 15.6631 29.4607 14.0035 25.537 10.0798C21.6133 6.1561 20.0342-0.175707 20.0342-9.21365L20.0342-60.2927C20.0342-69.9149 21.6133-76.4627 25.465-80.3864C29.3887-84.3821 36.0889-85.8977 45.6392-85.8977L96.7857-85.8977C105.752-85.8977 112.164-84.2381 116.088-80.3144C120.083-76.3907 121.662-70.0589 121.662-61.0209ZM43.1253-35.2697C43.1253-34.2507 44.1067-33.2777 45.2146-33.2777L68.7759-33.2777L68.7759-9.70799C68.7759-8.60853 69.7488-7.69915 70.7679-7.69915C71.9393-7.69915 72.9207-8.53654 72.9207-9.70799L72.9207-33.2777L96.4184-33.2777C97.5899-33.2777 98.4908-34.2507 98.4908-35.2697C98.4908-36.4412 97.6619-37.4225 96.4184-37.4225L72.9207-37.4225L72.9207-60.9838C72.9207-62.1637 71.9393-63.0011 70.7679-63.0011C69.7488-63.0011 68.7759-62.0917 68.7759-60.9838L68.7759-37.4225L45.2146-37.4225C44.0347-37.4225 43.1253-36.4412 43.1253-35.2697Z"/>
  </g>
  <g id="Ultralight-L" transform="matrix(1 0 0 1 489.6 1556)">
   <path d="M117.853-82.7835C113.225-87.3311 107.226-89.1497 94.3847-89.1497L44.9889-89.1497C33.0818-89.1497 26.9128-87.2461 22.4547-82.6986C17.9071-78.2404 16.084-72.2323 16.084-60.2403L16.084-10.8131C16.084 2.1934 17.8222 8.19704 22.3698 12.5748C26.9128 17.1178 32.9165 18.941 45.838 18.941L94.3847 18.941C107.226 18.941 113.31 17.1178 117.853 12.5748C122.316 8.11662 124.139 2.1934 124.139-10.8131L124.139-59.3957C124.139-72.4021 122.316-78.4103 117.853-82.7835ZM121.559-60.9951L121.559-9.21365C121.559 0.393157 119.727 6.63446 115.777 10.584C111.828 14.6185 105.506 16.3612 95.9841 16.3612L44.2386 16.3612C34.7167 16.3612 28.3101 14.5336 24.3605 10.584C20.4109 6.63446 18.6637 0.393157 18.6637-9.21365L18.6637-60.1505C18.6637-70.4321 20.4109-76.9281 24.2756-80.8777C28.2252-84.9121 34.8865-86.57 45.0832-86.57L95.9841-86.57C105.506-86.57 111.828-84.7423 115.777-80.7928C119.812-76.8432 121.559-70.6019 121.559-60.9951ZM42.7245-35.2697C42.7245-34.7032 43.4344-33.9888 44.0769-33.9888L68.75-33.9888L68.75-9.32013C68.75-8.67317 69.4644-8.04823 70.0309-8.04823C70.7628-8.04823 71.4727-8.58826 71.4727-9.32013L71.4727-33.9888L96.0564-33.9888C96.7883-33.9888 97.4177-34.7032 97.4177-35.2697C97.4177-36.0016 96.8732-36.7114 96.0564-36.7114L71.4727-36.7114L71.4727-61.3846C71.4727-62.112 70.7628-62.652 70.0309-62.652C69.4644-62.652 68.75-62.0271 68.75-61.3846L68.75-36.7114L44.0769-36.7114C43.3495-36.7114 42.7245-36.0016 42.7245-35.2697Z"/>
  </g>
  <g id="Black-M" transform="matrix(1 0 0 1 2873.09 1126)">
   <path d="M101.215-76.0186C95.9689-81.2024 89.2795-83.0266 77.9443-83.0266L42.6802-83.0266C31.3419-83.0266 24.596-81.2027 19.4064-76.0188C14.2225-70.8292 12.4609-64.265 12.4609-52.8128L12.4609-17.5871C12.4609-6.13281 14.2228 0.493986 19.4067 5.62131C24.6531 10.8107 31.337 12.6293 42.6774 12.6293L77.9443 12.6293C89.2795 12.6293 96.0257 10.8107 101.215 5.62131C106.399 0.431682 108.161-6.13281 108.161-17.5871L108.161-52.8101C108.161-64.2644 106.399-70.8857 101.215-76.0186ZM90.8228-54.1814L90.8228-16.2159C90.8228-10.9378 90.1-8.78023 88.4854-7.1086C86.8138-5.49434 84.5368-4.70861 79.3156-4.70861L41.3061-4.70861C36.0849-4.70861 33.8082-5.49406 32.1366-7.1086C30.522-8.78023 29.7989-10.9378 29.7989-16.2159L29.7989-54.1787C29.7989-59.46 30.522-61.6167 32.1368-63.2884C33.8085-64.9026 36.0843-65.6886 41.3088-65.6886L79.3156-65.6886C84.5368-65.6886 86.8138-64.9032 88.4854-63.2886C90.0997-61.617 90.8228-59.4594 90.8228-54.1814ZM38.0605-35.2606C38.0605-31.4245 40.8544-28.522 44.587-28.522L53.567-28.522L53.567-19.5365C53.567-15.8094 56.4695-13.0152 60.3057-13.0152C64.1467-13.0152 67.0547-15.8096 67.0547-19.5365L67.0547-28.522L76.0405-28.522C79.7674-28.522 82.556-31.4245 82.556-35.2606C82.556-39.1017 79.7671-42.0097 76.0405-42.0097L67.0547-42.0097L67.0547-50.9897C67.0547-54.7221 64.1467-57.5165 60.3057-57.5165C56.4695-57.5165 53.567-54.7223 53.567-50.9897L53.567-42.0097L44.587-42.0097C40.8547-42.0097 38.0605-39.1017 38.0605-35.2606Z"/>
  </g>
  <g id="Heavy-M" transform="matrix(1 0 0 1 2577.05 1126)">
   <path d="M100.167-75.5954C94.9738-80.7263 88.2057-82.3091 77.5888-82.3091L41.6677-82.3091C31.0758-82.3091 24.2595-80.724 19.1146-75.5932C13.9837-70.4482 12.4609-63.8002 12.4609-53.1188L12.4609-17.3125C12.4609-6.58742 13.9814 0.120631 19.1123 5.20332C24.3032 10.3506 31.0548 11.917 41.6904 11.917L77.5888 11.917C88.2057 11.917 95.0197 10.3506 100.167 5.20332C105.296 0.0583268 106.818-6.58742 106.818-17.3125L106.818-53.0796C106.818-63.8047 105.296-70.4964 100.167-75.5954ZM91.7187-54.4458L91.7187-15.9464C91.7187-10.731 91.0139-7.8502 89.0843-5.877C87.1111-3.94516 84.1244-3.18264 78.955-3.18264L40.3243-3.18264C35.1548-3.18264 32.1658-3.94743 30.1926-5.877C28.263-7.8502 27.5605-10.731 27.5605-15.9464L27.5605-54.4066C27.5605-59.6566 28.263-62.5442 30.1903-64.5174C32.1635-66.4492 35.1593-67.2095 40.3634-67.2095L78.955-67.2095C84.1244-67.2095 87.1111-66.4447 89.0843-64.5151C91.0162-62.5419 91.7187-59.6611 91.7187-54.4458ZM37.2941-35.2606C37.2941-31.77 39.8321-29.1612 43.2706-29.1612L53.5214-29.1612L53.5214-18.8939C53.5214-15.4718 56.1303-12.9361 59.6209-12.9361C63.1325-12.9361 65.7578-15.4695 65.7578-18.8939L65.7578-29.1612L76.0228-29.1612C79.4471-29.1612 81.9665-31.77 81.9665-35.2606C81.9665-38.7722 79.4494-41.3975 76.0228-41.3975L65.7578-41.3975L65.7578-51.6484C65.7578-55.0891 63.1325-57.6226 59.6209-57.6226C56.1303-57.6226 53.5214-55.0869 53.5214-51.6484L53.5214-41.3975L43.2706-41.3975C39.8298-41.3975 37.2941-38.7722 37.2941-35.2606Z"/>
  </g>
  <g id="Bold-M" transform="matrix(1 0 0 1 2281.09 1126)">
   <path d="M98.9944-75.1221C93.8606-80.1937 87.0044-81.5065 77.1911-81.5065L40.535-81.5065C30.7781-81.5065 23.8832-80.1886 18.7881-75.117C13.7166-70.022 12.4609-63.2802 12.4609-53.461L12.4609-17.0053C12.4609-7.09598 13.7114-0.29702 18.783 4.73573C23.9117 9.83591 30.7392 11.1201 40.5863 11.1201L77.1911 11.1201C87.0044 11.1201 93.8943 9.83591 98.9944 4.73573C104.061-0.359324 105.316-7.09598 105.316-17.0053L105.316-53.3811C105.316-63.2904 104.061-70.0608 98.9944-75.1221ZM92.7208-54.7415L92.7208-15.6449C92.7208-10.4996 92.0363-6.80981 89.7543-4.49929C87.4438-2.21217 83.6631-1.47563 78.5515-1.47563L39.2259-1.47563C34.1143-1.47563 30.3285-2.21731 28.018-4.49929C25.736-6.80981 25.0566-10.4996 25.0566-15.6449L25.0566-54.6616C25.0566-59.8765 25.736-63.5817 28.0129-65.8923C30.3234-68.1794 34.1246-68.9108 39.3059-68.9108L78.5515-68.9108C83.6631-68.9108 87.4438-68.1691 89.7543-65.8871C92.0414-63.5766 92.7208-59.8868 92.7208-54.7415ZM36.4366-35.2606C36.4366-32.1565 38.6885-29.8762 41.7979-29.8762L53.4705-29.8762L53.4705-18.175C53.4705-15.0942 55.7508-12.8475 58.855-12.8475C61.998-12.8475 64.3069-15.0891 64.3069-18.175L64.3069-29.8762L76.003-29.8762C79.0889-29.8762 81.307-32.1565 81.307-35.2606C81.307-38.4037 79.0941-40.7126 76.003-40.7126L64.3069-40.7126L64.3069-52.3852C64.3069-55.4997 61.998-57.7413 58.855-57.7413C55.7508-57.7413 53.4705-55.4946 53.4705-52.3852L53.4705-40.7126L41.7979-40.7126C38.6834-40.7126 36.4366-38.4037 36.4366-35.2606Z"/>
  </g>
  <g id="Semibold-M" transform="matrix(1 0 0 1 1984.9 1126)">
   <path d="M98.1861-74.7958C93.0931-79.8265 86.1763-80.9532 76.9169-80.9532L39.7541-80.9532C30.5729-80.9532 23.6237-79.8194 18.5631-74.7887C13.5324-69.7281 12.4609-62.9217 12.4609-53.697L12.4609-16.7936C12.4609-7.44657 13.5253-0.584946 18.556 4.41337C23.6419 9.4811 30.5216 10.5707 39.8252 10.5707L76.9169 10.5707C86.1763 10.5707 93.1184 9.4811 98.1861 4.41337C103.21-0.647251 104.281-7.44657 104.281-16.7936L104.281-53.5889C104.281-62.9359 103.21-69.7605 98.1861-74.7958ZM93.4116-54.9454L93.4116-15.4371C93.4116-10.3401 92.7411-6.09258 90.2162-3.5495C87.6731-1.01746 83.3451-0.298823 78.2734-0.298823L38.4687-0.298823C33.397-0.298823 29.0619-1.02457 26.5188-3.5495C23.9939-6.09258 23.3305-10.3401 23.3305-15.4371L23.3305-54.8373C23.3305-60.0281 23.9939-64.297 26.5117-66.8401C29.0548-69.3721 33.4112-70.0836 38.5768-70.0836L78.2734-70.0836C83.3451-70.0836 87.6731-69.3579 90.2162-66.833C92.7482-64.2899 93.4116-60.0423 93.4116-54.9454ZM35.8456-35.2606C35.8456-32.423 37.9001-30.3691 40.7827-30.3691L53.4354-30.3691L53.4354-17.6794C53.4354-14.8339 55.4892-12.7864 58.3269-12.7864C61.2158-12.7864 63.3067-14.8268 63.3067-17.6794L63.3067-30.3691L75.9893-30.3691C78.842-30.3691 80.8524-32.423 80.8524-35.2606C80.8524-38.1496 78.8491-40.2405 75.9893-40.2405L63.3067-40.2405L63.3067-52.8932C63.3067-55.7828 61.2158-57.8232 58.3269-57.8232C55.4892-57.8232 53.4354-55.7757 53.4354-52.8932L53.4354-40.2405L40.7827-40.2405C37.893-40.2405 35.8456-38.1496 35.8456-35.2606Z"/>
  </g>
  <g id="Medium-M" transform="matrix(1 0 0 1 1688.58 1126)">
   <path d="M97.5732-74.5484C92.5112-79.5481 85.5484-80.5336 76.709-80.5336L39.1621-80.5336C30.4173-80.5336 23.427-79.5395 18.3924-74.5398C13.3927-69.5053 12.4609-62.6499 12.4609-53.8759L12.4609-16.633C12.4609-7.7124 13.3841-0.803264 18.3838 4.16895C23.4372 9.21207 30.3566 10.1542 39.2481 10.1542L76.709 10.1542C85.5484 10.1542 92.5301 9.21207 97.5732 4.16895C102.564-0.865568 103.496-7.7124 103.496-16.633L103.496-53.7465C103.496-62.6671 102.564-69.5328 97.5732-74.5484ZM93.9355-55.1L93.9355-15.2795C93.9355-10.2192 93.2755-5.54875 90.5664-2.82933C87.8469-0.111583 83.1039 0.59348 78.0625 0.59348L37.8946 0.59348C32.8532 0.59348 28.1015-0.120183 25.3821-2.82933C22.673-5.54875 22.0216-10.2192 22.0216-15.2795L22.0216-54.9706C22.0216-60.1431 22.673-64.8393 25.3735-67.5588C28.0929-70.2765 32.8704-70.973 38.024-70.973L78.0625-70.973C83.1039-70.973 87.8469-70.2593 90.5664-67.5502C93.2841-64.8307 93.9355-60.1603 93.9355-55.1ZM35.3974-35.2606C35.3974-32.625 37.3023-30.7429 40.0129-30.7429L53.4087-30.7429L53.4087-17.3036C53.4087-14.6365 55.2909-12.7401 57.9265-12.7401C60.6228-12.7401 62.5483-14.6279 62.5483-17.3036L62.5483-30.7429L75.979-30.7429C78.6547-30.7429 80.5077-32.625 80.5077-35.2606C80.5077-37.9569 78.6633-39.8825 75.979-39.8825L62.5483-39.8825L62.5483-53.2783C62.5483-55.9975 60.6228-57.8852 57.9265-57.8852C55.2909-57.8852 53.4087-55.9889 53.4087-53.2783L53.4087-39.8825L40.0129-39.8825C37.2937-39.8825 35.3974-37.9569 35.3974-35.2606Z"/>
  </g>
  <g id="Regular-M" transform="matrix(1 0 0 1 1392.38 1126)">
   <path d="M96.7738-74.2257C91.7522-79.185 84.7294-79.9864 76.4378-79.9864L38.3898-79.9864C30.2143-79.9864 23.1703-79.1744 18.1699-74.2152C13.2106-69.2147 12.4609-62.2953 12.4609-54.1093L12.4609-16.4235C12.4609-8.05914 13.2-1.08803 18.1593 3.85014C23.1703 8.86116 30.1414 9.61082 38.4953 9.61082L76.4378 9.61082C84.7294 9.61082 91.7628 8.86116 96.7738 3.85014C101.723-1.15033 102.472-8.05914 102.472-16.4235L102.472-53.9521C102.472-62.3164 101.723-69.2358 96.7738-74.2257ZM94.6187-55.3017L94.6187-15.0739C94.6187-10.0614 93.9726-4.8394 91.0231-1.88997C88.0737 1.07 82.7894 1.75735 77.7874 1.75735L37.1457 1.75735C32.1437 1.75735 26.8488 1.05945 23.8994-1.88997C20.95-4.8394 20.3144-10.0614 20.3144-15.0739L20.3144-55.1444C20.3144-60.293 20.95-65.5467 23.8889-68.4962C26.8383-71.4561 32.1648-72.1329 37.3029-72.1329L77.7874-72.1329C82.7894-72.1329 88.0737-71.435 91.0231-68.4856C93.9831-65.5362 94.6187-60.3141 94.6187-55.3017ZM34.8128-35.2606C34.8128-32.8885 36.5226-31.2304 39.0088-31.2304L53.374-31.2304L53.374-16.8134C53.374-14.379 55.0321-12.6797 57.4043-12.6797C59.8492-12.6797 61.5591-14.3685 61.5591-16.8134L61.5591-31.2304L75.9655-31.2304C78.4105-31.2304 80.0581-32.8885 80.0581-35.2606C80.0581-37.7056 78.421-39.4155 75.9655-39.4155L61.5591-39.4155L61.5591-53.7807C61.5591-56.2774 59.8492-57.9662 57.4043-57.9662C55.0321-57.9662 53.374-56.2669 53.374-53.7807L53.374-39.4155L39.0088-39.4155C36.5121-39.4155 34.8128-37.7056 34.8128-35.2606Z"/>
  </g>
  <g id="Light-M" transform="matrix(1 0 0 1 1096.64 1126)">
   <path d="M95.0798-73.5584C90.5031-78.0728 84.216-79.0624 75.4112-79.0624L37.2947-79.0624C28.7941-79.0624 22.4517-78.0451 17.9303-73.5307C13.4159-69.0094 12.4609-62.7916 12.4609-54.2633L12.4609-16.3893C12.4609-7.49448 13.3883-1.24202 17.9026 3.21703C22.4517 7.76606 28.7041 8.72105 37.5713 8.72105L75.4112 8.72105C84.216 8.72105 90.5308 7.76606 95.0798 3.21703C99.5665-1.30433 100.522-7.49448 100.522-16.3893L100.522-53.9521C100.522-62.8469 99.5665-69.0647 95.0798-73.5584ZM94.4818-55.2674L94.4818-15.0739C94.4818-9.30856 93.5961-4.20629 90.6125-1.22265C87.6288 1.78866 82.4643 2.68134 76.7266 2.68134L36.2559 2.68134C30.5182 2.68134 25.326 1.761 22.3423-1.22265C19.3587-4.20629 18.5006-9.30856 18.5006-15.0739L18.5006-54.9562C18.5006-60.9775 19.3587-66.1627 22.3147-69.1464C25.2983-72.1577 30.5735-73.0227 36.5672-73.0227L76.7266-73.0227C82.4643-73.0227 87.6288-72.1024 90.6125-69.1187C93.6238-66.1351 94.4818-61.0328 94.4818-55.2674ZM34.2823-35.2606C34.2823-33.4874 35.6329-32.1715 37.5031-32.1715L53.3398-32.1715L53.3398-16.3001C53.3398-14.4646 54.6557-13.1417 56.4289-13.1417C58.2921-13.1417 59.6427-14.4369 59.6427-16.3001L59.6427-32.1715L75.4864-32.1715C77.3496-32.1715 78.6378-33.4874 78.6378-35.2606C78.6378-37.1238 77.3773-38.4744 75.4864-38.4744L59.6427-38.4744L59.6427-54.3111C59.6427-56.209 58.2921-57.5042 56.4289-57.5042C54.6557-57.5042 53.3398-56.1813 53.3398-54.3111L53.3398-38.4744L37.5031-38.4744C35.6052-38.4744 34.2823-37.1238 34.2823-35.2606Z"/>
  </g>
  <g id="Thin-M" transform="matrix(1 0 0 1 801.221 1126)">
   <path d="M92.8394-72.6758C88.8511-76.6018 83.5371-77.8404 74.0533-77.8404L35.8463-77.8404C26.9158-77.8404 21.5012-76.5515 17.6135-72.6255C13.6875-68.7378 12.4609-63.4478 12.4609-54.467L12.4609-16.344C12.4609-6.74767 13.6372-1.4457 17.5632 2.3797C21.5012 6.3177 26.8032 7.54426 36.3492 7.54426L74.0533 7.54426C83.5371 7.54426 88.9014 6.3177 92.8394 2.3797C96.7151-1.508 97.9416-6.74767 97.9416-16.344L97.9416-53.9521C97.9416-63.5484 96.7151-68.8384 92.8394-72.6758ZM94.3008-55.2222L94.3008-15.0739C94.3008-8.31281 93.0983-3.36896 90.0693-0.340055C87.0404 2.73914 82.0343 3.9034 75.3235 3.9034L35.0791 3.9034C28.3683 3.9034 23.3119 2.68885 20.2829-0.340055C17.254-3.36896 16.1018-8.31281 16.1018-15.0739L16.1018-54.7072C16.1018-61.8827 17.254-66.9774 20.2327-70.0063C23.2616-73.0855 28.4689-74.1995 35.5941-74.1995L75.3235-74.1995C82.0343-74.1995 87.0404-72.9849 90.0693-69.956C93.1485-66.9271 94.3008-61.9833 94.3008-55.2222ZM33.5808-35.2606C33.5808-34.2795 34.4561-33.4162 35.5116-33.4162L53.2945-33.4162L53.2945-15.6212C53.2945-14.5777 54.1578-13.7527 55.139-13.7527C56.2328-13.7527 57.1081-14.5274 57.1081-15.6212L57.1081-33.4162L74.8527-33.4162C75.9465-33.4162 76.7595-34.2795 76.7595-35.2606C76.7595-36.3544 75.9968-37.2297 74.8527-37.2297L57.1081-37.2297L57.1081-55.0127C57.1081-56.1185 56.2328-56.8932 55.139-56.8932C54.1578-56.8932 53.2945-56.0682 53.2945-55.0127L53.2945-37.2297L35.5116-37.2297C34.4058-37.2297 33.5808-36.3544 33.5808-35.2606Z"/>
  </g>
  <g id="Ultralight-M" transform="matrix(1 0 0 1 505.171 1126)">
   <path d="M91.6919-72.2237C88.0049-75.8484 83.1894-77.2144 73.3579-77.2144L35.1045-77.2144C25.9537-77.2144 21.0144-75.7865 17.4512-72.1619C13.8266-68.5987 12.4609-63.784 12.4609-54.5713L12.4609-16.3209C12.4609-6.36516 13.7647-1.55002 17.3893 1.95082C21.0144 5.57586 25.8295 6.94151 35.7233 6.94151L73.3579 6.94151C83.1894 6.94151 88.0668 5.57586 91.6919 1.95082C95.2546-1.61233 96.6202-6.36516 96.6202-16.3209L96.6202-53.9521C96.6202-63.9078 95.2546-68.7225 91.6919-72.2237ZM94.2081-55.199L94.2081-15.0739C94.2081-7.80279 92.8432-2.94008 89.7912 0.112005C86.7391 3.22598 81.8141 4.52933 74.6048 4.52933L34.4764 4.52933C27.2671 4.52933 22.2802 3.16409 19.2281 0.112005C16.1761-2.94008 14.8731-7.80279 14.8731-15.0739L14.8731-54.5797C14.8731-62.3464 16.1761-67.3947 19.1663-70.4468C22.2183-73.5608 27.3909-74.8022 35.0956-74.8022L74.6048-74.8022C81.8141-74.8022 86.7391-73.437 89.7912-70.3849C92.9051-67.3328 94.2081-62.4701 94.2081-55.199ZM33.2214-35.2606C33.2214-34.6852 33.8533-34.0537 34.4915-34.0537L53.2713-34.0537L53.2713-15.2735C53.2713-14.6357 53.9028-14.0657 54.4783-14.0657C55.1779-14.0657 55.8098-14.5738 55.8098-15.2735L55.8098-34.0537L74.5282-34.0537C75.2278-34.0537 75.7974-34.6852 75.7974-35.2606C75.7974-35.9603 75.2897-36.5922 74.5282-36.5922L55.8098-36.5922L55.8098-55.372C55.8098-56.0721 55.1779-56.5802 54.4783-56.5802C53.9028-56.5802 53.2713-56.0102 53.2713-55.372L53.2713-36.5922L34.4915-36.5922C33.7914-36.5922 33.2214-35.9603 33.2214-35.2606Z"/>
  </g>
  <g id="Black-S" transform="matrix(1 0 0 1 2885.99 696)">
   <path d="M79.541-67.2852C75.4395-71.3379 70.2637-72.8516 61.1328-72.8516L33.6914-72.8516C24.5605-72.8516 19.3359-71.3379 15.2832-67.2852C11.2305-63.2324 9.76562-58.1543 9.76562-48.9258L9.76562-21.4844C9.76562-12.2559 11.2305-7.12891 15.2832-3.125C19.3848 0.927734 24.5605 2.44141 33.6914 2.44141L61.1328 2.44141C70.2637 2.44141 75.4883 0.927734 79.541-3.125C83.5938-7.17773 85.0586-12.2559 85.0586-21.4844L85.0586-48.9258C85.0586-58.1543 83.5938-63.2812 79.541-67.2852ZM70.8984-50L70.8984-20.4102C70.8984-16.2109 70.3125-14.7461 69.1406-13.5254C67.9199-12.3535 66.3574-11.7188 62.207-11.7188L32.6172-11.7188C28.4668-11.7188 26.9043-12.3535 25.6836-13.5254C24.5117-14.7461 23.9258-16.2109 23.9258-20.4102L23.9258-50C23.9258-54.1992 24.5117-55.6641 25.6836-56.8848C26.9043-58.0566 28.4668-58.6914 32.6172-58.6914L62.207-58.6914C66.3574-58.6914 67.9199-58.0566 69.1406-56.8848C70.3125-55.6641 70.8984-54.1992 70.8984-50ZM30.0293-35.2539C30.0293-32.1777 32.2754-29.834 35.2539-29.834L41.9922-29.834L41.9922-23.0957C41.9922-20.1172 44.3359-17.8711 47.4121-17.8711C50.4883-17.8711 52.832-20.1172 52.832-23.0957L52.832-29.834L59.5703-29.834C62.5488-29.834 64.7949-32.1777 64.7949-35.2539C64.7949-38.3301 62.5488-40.6738 59.5703-40.6738L52.832-40.6738L52.832-47.4121C52.832-50.3906 50.4883-52.6367 47.4121-52.6367C44.3359-52.6367 41.9922-50.3906 41.9922-47.4121L41.9922-40.6738L35.2539-40.6738C32.2754-40.6738 30.0293-38.3301 30.0293-35.2539Z"/>
  </g>
  <g id="Heavy-S" transform="matrix(1 0 0 1 2589.73 696)">
   <path d="M78.8611-67.0086C74.748-71.0728 69.4109-72.356 60.9599-72.356L32.9654-72.356C24.5144-72.356 19.14-71.0728 15.0642-67.0086C11-62.9328 9.76562-57.6933 9.76562-49.1678L9.76562-21.2539C9.76562-12.7168 11-7.42854 15.0642-3.40159C19.1773 0.674196 24.5029 1.94585 32.9654 1.94585L60.9599 1.94585C69.4109 1.94585 74.7853 0.674196 78.8611-3.40159C82.9253-7.47737 84.1597-12.7168 84.1597-21.2539L84.1597-49.1563C84.1597-57.6933 82.9253-62.9701 78.8611-67.0086ZM71.6821-50.2305L71.6821-20.1797C71.6821-16.1303 71.1423-14.0316 69.7053-12.5573C68.2311-11.1204 66.0463-10.5317 62.0342-10.5317L31.8911-10.5317C27.879-10.5317 25.6942-11.1204 24.22-12.5573C22.783-14.0316 22.2432-16.1303 22.2432-20.1797L22.2432-50.219C22.2432-54.2799 22.783-56.3786 24.22-57.8528C25.6942-59.2898 27.879-59.8784 31.9027-59.8784L62.0342-59.8784C66.0463-59.8784 68.2311-59.2898 69.7053-57.8528C71.1423-56.3786 71.6821-54.2799 71.6821-50.2305ZM29.4415-35.2539C29.4415-32.3967 31.5148-30.2604 34.3204-30.2604L41.9576-30.2604L41.9576-22.6117C41.9576-19.8176 44.0939-17.7443 46.9511-17.7443C49.8199-17.7443 51.9677-19.8176 51.9677-22.6117L51.9677-30.2604L59.6164-30.2604C62.4105-30.2604 64.4722-32.3967 64.4722-35.2539C64.4722-38.1226 62.4105-40.2705 59.6164-40.2705L51.9677-40.2705L51.9677-47.9077C51.9677-50.7133 49.8199-52.7865 46.9511-52.7865C44.0939-52.7865 41.9576-50.7133 41.9576-47.9077L41.9576-40.2705L34.3204-40.2705C31.5148-40.2705 29.4415-38.1226 29.4415-35.2539Z"/>
  </g>
  <g id="Bold-S" transform="matrix(1 0 0 1 2293.52 696)">
   <path d="M78.1006-66.6992C73.9746-70.7764 68.457-71.8018 60.7666-71.8018L32.1533-71.8018C24.4629-71.8018 18.9209-70.7764 14.8193-66.6992C10.7422-62.5977 9.76562-57.1777 9.76562-49.4385L9.76562-20.9961C9.76562-13.2324 10.7422-7.76367 14.8193-3.71094C18.9453 0.390625 24.4385 1.3916 32.1533 1.3916L60.7666 1.3916C68.457 1.3916 73.999 0.390625 78.1006-3.71094C82.1777-7.8125 83.1543-13.2324 83.1543-20.9961L83.1543-49.4141C83.1543-57.1777 82.1777-62.6221 78.1006-66.6992ZM72.5586-50.4883L72.5586-19.9219C72.5586-16.04 72.0703-13.2324 70.3369-11.4746C68.5791-9.74121 65.6982-9.2041 61.8408-9.2041L31.0791-9.2041C27.2217-9.2041 24.3408-9.74121 22.583-11.4746C20.8496-13.2324 20.3613-16.04 20.3613-19.9219L20.3613-50.4639C20.3613-54.3701 20.8496-57.1777 22.583-58.9355C24.3408-60.6689 27.2217-61.2061 31.1035-61.2061L61.8408-61.2061C65.6982-61.2061 68.5791-60.6689 70.3369-58.9355C72.0703-57.1777 72.5586-54.3701 72.5586-50.4883ZM28.7842-35.2539C28.7842-32.6416 30.6641-30.7373 33.2764-30.7373L41.9189-30.7373L41.9189-22.0703C41.9189-19.4824 43.8232-17.6025 46.4355-17.6025C49.0723-17.6025 51.001-19.4824 51.001-22.0703L51.001-30.7373L59.668-30.7373C62.2559-30.7373 64.1113-32.6416 64.1113-35.2539C64.1113-37.8906 62.2559-39.8193 59.668-39.8193L51.001-39.8193L51.001-48.4619C51.001-51.0742 49.0723-52.9541 46.4355-52.9541C43.8232-52.9541 41.9189-51.0742 41.9189-48.4619L41.9189-39.8193L33.2764-39.8193C30.6641-39.8193 28.7842-37.8906 28.7842-35.2539Z"/>
  </g>
  <g id="Semibold-S" transform="matrix(1 0 0 1 1997.15 696)">
   <path d="M77.5763-66.4859C73.4414-70.572 67.7994-71.4196 60.6333-71.4196L31.5935-71.4196C24.4273-71.4196 18.7698-70.572 14.6505-66.4859C10.5645-62.3666 9.76562-56.8223 9.76562-49.6251L9.76562-20.8184C9.76562-13.5879 10.5645-7.99473 14.6505-3.92422C18.7854 0.195117 24.394 1.00947 31.5935 1.00947L60.6333 1.00947C67.7994 1.00947 73.4569 0.195117 77.5763-3.92422C81.6623-8.04355 82.4611-13.5879 82.4611-20.8184L82.4611-49.5918C82.4611-56.8223 81.6623-62.3821 77.5763-66.4859ZM73.1629-50.666L73.1629-19.7441C73.1629-15.9778 72.7102-12.6814 70.7724-10.7281C68.819-8.79033 65.4583-8.28877 61.7075-8.28877L30.5192-8.28877C26.7685-8.28877 23.4077-8.79033 21.4544-10.7281C19.5166-12.6814 19.0639-15.9778 19.0639-19.7441L19.0639-50.6327C19.0639-54.4323 19.5166-57.7287 21.4544-59.682C23.4077-61.6198 26.7685-62.1214 30.5525-62.1214L61.7075-62.1214C65.4583-62.1214 68.819-61.6198 70.7724-59.682C72.7102-57.7287 73.1629-54.4323 73.1629-50.666ZM28.331-35.2539C28.331-32.8104 30.0775-31.0661 32.5565-31.0661L41.8923-31.0661L41.8923-21.6971C41.8923-19.2514 43.6366-17.5048 46.0801-17.5048C48.5568-17.5048 50.3345-19.2514 50.3345-21.6971L50.3345-31.0661L59.7035-31.0661C62.1492-31.0661 63.8625-32.8104 63.8625-35.2539C63.8625-37.7307 62.1492-39.5083 59.7035-39.5083L50.3345-39.5083L50.3345-48.844C50.3345-51.323 48.5568-53.0696 46.0801-53.0696C43.6366-53.0696 41.8923-51.323 41.8923-48.844L41.8923-39.5083L32.5565-39.5083C30.0775-39.5083 28.331-37.7307 28.331-35.2539Z"/>
  </g>
  <g id="Medium-S" transform="matrix(1 0 0 1 1700.7 696)">
   <path d="M77.1787-66.3242C73.0371-70.417 67.3008-71.1299 60.5322-71.1299L31.1689-71.1299C24.4004-71.1299 18.6553-70.417 14.5225-66.3242C10.4297-62.1914 9.76562-56.5527 9.76562-49.7666L9.76562-20.6836C9.76562-13.8574 10.4297-8.16992 14.5225-4.08594C18.6641 0.046875 24.3604 0.719727 31.1689 0.719727L60.5322 0.719727C67.3008 0.719727 73.0459 0.046875 77.1787-4.08594C81.2715-8.21875 81.9355-13.8574 81.9355-20.6836L81.9355-49.7266C81.9355-56.5527 81.2715-62.2002 77.1787-66.3242ZM73.6211-50.8008L73.6211-19.6094C73.6211-15.9307 73.1953-12.2637 71.1025-10.1621C69.001-8.06934 65.2764-7.59473 61.6064-7.59473L30.0947-7.59473C26.4248-7.59473 22.7002-8.06934 20.5986-10.1621C18.5059-12.2637 18.0801-15.9307 18.0801-19.6094L18.0801-50.7607C18.0801-54.4795 18.5059-58.1465 20.5986-60.248C22.7002-62.3408 26.4248-62.8154 30.1348-62.8154L61.6064-62.8154C65.2764-62.8154 69.001-62.3408 71.1025-60.248C73.1953-58.1465 73.6211-54.4795 73.6211-50.8008ZM27.9873-35.2539C27.9873-32.9385 29.6328-31.3154 32.0107-31.3154L41.8721-31.3154L41.8721-21.4141C41.8721-19.0762 43.4951-17.4307 45.8105-17.4307C48.166-17.4307 49.8291-19.0762 49.8291-21.4141L49.8291-31.3154L59.7305-31.3154C62.0684-31.3154 63.6738-32.9385 63.6738-35.2539C63.6738-37.6094 62.0684-39.2725 59.7305-39.2725L49.8291-39.2725L49.8291-49.1338C49.8291-51.5117 48.166-53.1572 45.8105-53.1572C43.4951-53.1572 41.8721-51.5117 41.8721-49.1338L41.8721-39.2725L32.0107-39.2725C29.6328-39.2725 27.9873-37.6094 27.9873-35.2539Z"/>
  </g>
  <g id="Regular-S" transform="matrix(1 0 0 1 1404.34 696)">
   <path d="M76.6602-66.1133C72.5098-70.2148 66.6504-70.752 60.4004-70.752L30.6152-70.752C24.3652-70.752 18.5059-70.2148 14.3555-66.1133C10.2539-61.9629 9.76562-56.2012 9.76562-49.9512L9.76562-20.5078C9.76562-14.209 10.2539-8.39844 14.3555-4.29688C18.5059-0.146484 24.3164 0.341797 30.6152 0.341797L60.4004 0.341797C66.6504 0.341797 72.5098-0.146484 76.6602-4.29688C80.7617-8.44727 81.25-14.209 81.25-20.5078L81.25-49.9023C81.25-56.2012 80.7617-61.9629 76.6602-66.1133ZM74.2188-50.9766L74.2188-19.4336C74.2188-15.8691 73.8281-11.7188 71.5332-9.42383C69.2383-7.12891 65.0391-6.68945 61.4746-6.68945L29.541-6.68945C25.9766-6.68945 21.7773-7.12891 19.4824-9.42383C17.1875-11.7188 16.7969-15.8691 16.7969-19.4336L16.7969-50.9277C16.7969-54.541 17.1875-58.6914 19.4824-60.9863C21.7773-63.2812 25.9766-63.7207 29.5898-63.7207L61.4746-63.7207C65.0391-63.7207 69.2383-63.2812 71.5332-60.9863C73.8281-58.6914 74.2188-54.541 74.2188-50.9766ZM27.5391-35.2539C27.5391-33.1055 29.0527-31.6406 31.2988-31.6406L41.8457-31.6406L41.8457-21.0449C41.8457-18.8477 43.3105-17.334 45.459-17.334C47.6562-17.334 49.1699-18.8477 49.1699-21.0449L49.1699-31.6406L59.7656-31.6406C61.9629-31.6406 63.4277-33.1055 63.4277-35.2539C63.4277-37.4512 61.9629-38.9648 59.7656-38.9648L49.1699-38.9648L49.1699-49.5117C49.1699-51.7578 47.6562-53.2715 45.459-53.2715C43.3105-53.2715 41.8457-51.7578 41.8457-49.5117L41.8457-38.9648L31.2988-38.9648C29.0527-38.9648 27.5391-37.4512 27.5391-35.2539Z"/>
  </g>
  <g id="Light-S" transform="matrix(1 0 0 1 1108.49 696)">
   <path d="M75.1616-65.523C71.4048-69.231 66.1963-69.9346 59.4922-69.9346L29.6465-69.9346C23.1089-69.9346 17.8701-69.2158 14.1436-65.5078C10.4355-61.7813 9.76562-56.6401 9.76562-50.0874L9.76562-20.4775C9.76562-13.7095 10.4204-8.53467 14.1284-4.85693C17.8701-1.11523 23.0449-0.445306 29.7979-0.445306L59.4922-0.445306C66.1963-0.445306 71.4199-1.11523 75.1616-4.85693C78.8545-8.5835 79.5244-13.7095 79.5244-20.4775L79.5244-49.9023C79.5244-56.6704 78.8545-61.8115 75.1616-65.523ZM74.0977-50.9463L74.0977-19.4336C74.0977-15.2031 73.4951-11.1587 71.1699-8.8335C68.8447-6.49317 64.7515-5.87208 60.5361-5.87208L28.7539-5.87208C24.5386-5.87208 20.4302-6.50831 18.105-8.8335C15.7798-11.1587 15.1924-15.2031 15.1924-19.4336L15.1924-50.7612C15.1924-55.1465 15.7798-59.2363 18.0899-61.5615C20.415-63.9019 24.5689-64.5078 28.939-64.5078L60.5361-64.5078C64.7515-64.5078 68.8447-63.8716 71.1699-61.5464C73.5103-59.2212 74.0977-55.1768 74.0977-50.9463ZM27.0698-35.2539C27.0698-33.6352 28.2656-32.4731 29.9668-32.4731L41.8154-32.4731L41.8154-20.5908C41.8154-18.9233 42.9775-17.7427 44.5962-17.7427C46.2788-17.7427 47.4746-18.9082 47.4746-20.5908L47.4746-32.4731L59.3418-32.4731C61.0244-32.4731 62.1714-33.6352 62.1714-35.2539C62.1714-36.9365 61.0396-38.1323 59.3418-38.1323L47.4746-38.1323L47.4746-49.981C47.4746-51.6973 46.2788-52.8628 44.5962-52.8628C42.9775-52.8628 41.8154-51.6821 41.8154-49.981L41.8154-38.1323L29.9668-38.1323C28.2505-38.1323 27.0698-36.9365 27.0698-35.2539Z"/>
  </g>
  <g id="Thin-S" transform="matrix(1 0 0 1 812.918 696)">
   <path d="M73.1797-64.7422C69.9434-67.9297 65.5957-68.8535 58.291-68.8535L28.3653-68.8535C21.4473-68.8535 17.0293-67.8945 13.8633-64.707C10.6758-61.541 9.76562-57.2207 9.76562-50.2676L9.76562-20.4375C9.76562-13.0488 10.6406-8.71484 13.8281-5.59765C17.0293-2.39647 21.3633-1.48631 28.7168-1.48631L58.291-1.48631C65.5957-1.48631 69.9785-2.39647 73.1797-5.59765C76.3321-8.76367 77.2422-13.0488 77.2422-20.4375L77.2422-49.9023C77.2422-57.291 76.3321-61.6113 73.1797-64.7422ZM73.9375-50.9063L73.9375-19.4336C73.9375-14.3223 73.0547-10.418 70.6895-8.05275C68.3242-5.65236 64.3711-4.79103 59.2949-4.79103L27.7129-4.79103C22.6367-4.79103 18.6485-5.68751 16.2832-8.05275C13.918-10.418 13.0703-14.3223 13.0703-19.4336L13.0703-50.541C13.0703-55.9473 13.918-59.957 16.2481-62.3223C18.6133-64.7226 22.7071-65.5488 28.0781-65.5488L59.2949-65.5488C64.3711-65.5488 68.3242-64.6523 70.6895-62.2871C73.0898-59.9219 73.9375-56.0176 73.9375-50.9063ZM26.4492-35.2539C26.4492-34.3359 27.2246-33.5742 28.2051-33.5742L41.7754-33.5742L41.7754-19.9902C41.7754-19.0234 42.5371-18.2832 43.4551-18.2832C44.4571-18.2832 45.2325-18.9883 45.2325-19.9902L45.2325-33.5742L58.7813-33.5742C59.7832-33.5742 60.5098-34.3359 60.5098-35.2539C60.5098-36.2559 59.8184-37.0313 58.7813-37.0313L45.2325-37.0313L45.2325-50.6016C45.2325-51.6172 44.4571-52.3223 43.4551-52.3223C42.5371-52.3223 41.7754-51.582 41.7754-50.6016L41.7754-37.0313L28.2051-37.0313C27.1895-37.0313 26.4492-36.2559 26.4492-35.2539Z"/>
  </g>
  <g id="Ultralight-S" transform="matrix(1 0 0 1 516.792 696)">
   <path d="M72.1646-64.3423C69.1949-67.2632 65.2881-68.2998 57.6758-68.2998L27.709-68.2998C20.5962-68.2998 16.5986-67.2178 13.7197-64.2969C10.7988-61.418 9.76562-57.5181 9.76562-50.3599L9.76562-20.417C9.76562-12.7105 10.7534-8.80713 13.6743-5.97704C16.5986-3.05271 20.502-2.01951 28.1631-2.01951L57.6758-2.01951C65.2881-2.01951 69.2403-3.05271 72.1646-5.97704C75.0401-8.85595 76.0733-12.7105 76.0733-20.417L76.0733-49.9023C76.0733-57.6089 75.0401-61.5088 72.1646-64.3423ZM73.8555-50.8857L73.8555-19.4336C73.8555-13.8711 72.8291-10.0386 70.4434-7.65285C68.0576-5.22169 64.1763-4.23732 58.6592-4.23732L27.1797-4.23732C21.6626-4.23732 17.7359-5.2671 15.3501-7.65285C12.9644-10.0386 11.9834-13.8711 11.9834-19.4336L11.9834-50.4282C11.9834-56.3574 12.9644-60.3262 15.3047-62.7119C17.6905-65.1431 21.7535-66.082 27.6372-66.082L58.6592-66.082C64.1763-66.082 68.0576-65.0522 70.4434-62.6665C72.8745-60.2807 73.8555-56.4482 73.8555-50.8857ZM26.1314-35.2539C26.1314-34.6948 26.6914-34.1382 27.3028-34.1382L41.7549-34.1382L41.7549-19.6826C41.7549-19.0747 42.3115-18.56 42.8706-18.56C43.524-18.56 44.084-19.0293 44.084-19.6826L44.084-34.1382L58.4942-34.1382C59.1475-34.1382 59.6587-34.6948 59.6587-35.2539C59.6587-35.9072 59.1929-36.4673 58.4942-36.4673L44.084-36.4673L44.084-50.9194C44.084-51.5762 43.524-52.0454 42.8706-52.0454C42.3115-52.0454 41.7549-51.5308 41.7549-50.9194L41.7549-36.4673L27.3028-36.4673C26.646-36.4673 26.1314-35.9072 26.1314-35.2539Z"/>
  </g>
 </g>
</svg>
